<svg xmlns="http://www.w3.org/2000/svg" xmlns:xlink="http://www.w3.org/1999/xlink" width="1080" zoomAndPan="magnify" viewBox="0 0 810 809.999993" height="1080" preserveAspectRatio="xMidYMid meet" version="1.2"><defs><clipPath id="f948aaae6e"><path d="M 142.296875 19.011719 L 728.796875 19.011719 L 728.796875 790.761719 L 142.296875 790.761719 Z M 142.296875 19.011719 "/></clipPath><clipPath id="a78f05a618"><path d="M 265 19.011719 L 297 19.011719 L 297 81 L 265 81 Z M 265 19.011719 "/></clipPath><clipPath id="aded916a51"><path d="M 234 19.011719 L 266 19.011719 L 266 50 L 234 50 Z M 234 19.011719 "/></clipPath><clipPath id="0d98dfa280"><path d="M 265 19.011719 L 297 19.011719 L 297 50 L 265 50 Z M 265 19.011719 "/></clipPath><clipPath id="1869f44ac8"><path d="M 296 19.011719 L 328 19.011719 L 328 50 L 296 50 Z M 296 19.011719 "/></clipPath><clipPath id="791c96faee"><path d="M 173 698 L 390 698 L 390 790.761719 L 173 790.761719 Z M 173 698 "/></clipPath><clipPath id="048457cb29"><path d="M 142.296875 728 L 421 728 L 421 790.761719 L 142.296875 790.761719 Z M 142.296875 728 "/></clipPath><clipPath id="4efc3b2a87"><path d="M 142.296875 728 L 174 728 L 174 790.761719 L 142.296875 790.761719 Z M 142.296875 728 "/></clipPath><clipPath id="9ffaa58666"><path d="M 173 80 L 421 80 L 421 790.761719 L 173 790.761719 Z M 173 80 "/></clipPath><filter x="0%" y="0%" width="100%" filterUnits="objectBoundingBox" id="5649751e3e" height="100%"><feColorMatrix values="0 0 0 0 1 0 0 0 0 1 0 0 0 0 1 0 0 0 1 0" type="matrix" in="SourceGraphic"/></filter><clipPath id="f9ad05af40"><path d="M 61 0.640625 L 93 0.640625 L 93 63 L 61 63 Z M 61 0.640625 "/></clipPath><clipPath id="d5073cd72b"><path d="M 0.0390625 587 L 247.238281 587 L 247.238281 710.761719 L 0.0390625 710.761719 Z M 0.0390625 587 "/></clipPath><clipPath id="6dded7863e"><rect x="0" width="248" y="0" height="711"/></clipPath><clipPath id="e4bbc8454b"><path d="M 327 142 L 728.796875 142 L 728.796875 390 L 327 390 Z M 327 142 "/></clipPath><clipPath id="95e537758e"><path d="M 0.960938 0.28125 L 31.921875 0.28125 L 31.921875 185.800781 L 0.960938 185.800781 Z M 0.960938 0.28125 "/></clipPath><clipPath id="61ac5daf38"><rect x="0" width="32" y="0" height="186"/></clipPath><clipPath id="7c8de08538"><path d="M 0.359375 0.320312 L 31.558594 0.320312 L 31.558594 185.839844 L 0.359375 185.839844 Z M 0.359375 0.320312 "/></clipPath><clipPath id="896bad7f2c"><rect x="0" width="32" y="0" height="186"/></clipPath><clipPath id="4e2f799172"><path d="M 0.359375 0.921875 L 31.558594 0.921875 L 31.558594 93.800781 L 0.359375 93.800781 Z M 0.359375 0.921875 "/></clipPath><clipPath id="4f58a7501f"><rect x="0" width="32" y="0" height="94"/></clipPath><clipPath id="28beec47a9"><path d="M 0 0.640625 L 31.199219 0.640625 L 31.199219 62.800781 L 0 62.800781 Z M 0 0.640625 "/></clipPath><clipPath id="10c004549a"><rect x="0" width="32" y="0" height="63"/></clipPath><clipPath id="b4e973a1d6"><path d="M 0.320312 0.921875 L 62.238281 0.921875 L 62.238281 31.878906 L 0.320312 31.878906 Z M 0.320312 0.921875 "/></clipPath><clipPath id="e1af653b9f"><rect x="0" width="63" y="0" height="32"/></clipPath><clipPath id="3d74d4d607"><path d="M 0.320312 0.320312 L 93 0.320312 L 93 31.519531 L 0.320312 31.519531 Z M 0.320312 0.320312 "/></clipPath><clipPath id="a903c739c0"><rect x="0" width="94" y="0" height="32"/></clipPath><clipPath id="759d5dbdb7"><path d="M 0.679688 0.28125 L 62.601562 0.28125 L 62.601562 31.238281 L 0.679688 31.238281 Z M 0.679688 0.28125 "/></clipPath><clipPath id="c0efbce44b"><rect x="0" width="63" y="0" height="32"/></clipPath><clipPath id="b9fbf496f2"><path d="M 0.359375 0.640625 L 31.558594 0.640625 L 31.558594 31.839844 L 0.359375 31.839844 Z M 0.359375 0.640625 "/></clipPath><clipPath id="f468c886d0"><rect x="0" width="32" y="0" height="32"/></clipPath><clipPath id="8a0530c88f"><path d="M 0.0390625 0.640625 L 31.238281 0.640625 L 31.238281 31.839844 L 0.0390625 31.839844 Z M 0.0390625 0.640625 "/></clipPath><clipPath id="13e1446b28"><rect x="0" width="32" y="0" height="32"/></clipPath><clipPath id="d57ce9ac0b"><path d="M 0.320312 0.921875 L 31.28125 0.921875 L 31.28125 31.878906 L 0.320312 31.878906 Z M 0.320312 0.921875 "/></clipPath><clipPath id="71fdc910ef"><rect x="0" width="32" y="0" height="32"/></clipPath><clipPath id="21fb2bd7b6"><path d="M 0 0.28125 L 31 0.28125 L 31 31.238281 L 0 31.238281 Z M 0 0.28125 "/></clipPath><clipPath id="0c8536221c"><rect x="0" width="32" y="0" height="32"/></clipPath><clipPath id="f4c250168c"><path d="M 0.640625 0 L 31.601562 0 L 31.601562 31.199219 L 0.640625 31.199219 Z M 0.640625 0 "/></clipPath><clipPath id="eabf41d5d1"><rect x="0" width="32" y="0" height="32"/></clipPath><clipPath id="f2c8464f40"><path d="M 0.679688 0.601562 L 31.878906 0.601562 L 31.878906 31.800781 L 0.679688 31.800781 Z M 0.679688 0.601562 "/></clipPath><clipPath id="367bd67d5b"><rect x="0" width="32" y="0" height="32"/></clipPath><clipPath id="37ae4ad00f"><path d="M 0.679688 0.921875 L 31.878906 0.921875 L 31.878906 31.878906 L 0.679688 31.878906 Z M 0.679688 0.921875 "/></clipPath><clipPath id="7ae0184f54"><rect x="0" width="32" y="0" height="32"/></clipPath><clipPath id="5688cdbf49"><path d="M 0.640625 0.640625 L 31.601562 0.640625 L 31.601562 31.839844 L 0.640625 31.839844 Z M 0.640625 0.640625 "/></clipPath><clipPath id="f7affd9530"><rect x="0" width="32" y="0" height="32"/></clipPath><clipPath id="a4c7c464a0"><path d="M 0.320312 0.601562 L 31.519531 0.601562 L 31.519531 31.800781 L 0.320312 31.800781 Z M 0.320312 0.601562 "/></clipPath><clipPath id="e32111ae96"><rect x="0" width="32" y="0" height="32"/></clipPath><clipPath id="bedbbbf7d8"><path d="M 0.28125 0.640625 L 31.238281 0.640625 L 31.238281 31.839844 L 0.28125 31.839844 Z M 0.28125 0.640625 "/></clipPath><clipPath id="cfcc27ce6a"><rect x="0" width="32" y="0" height="32"/></clipPath><clipPath id="c06a477db5"><path d="M 0.359375 1 L 31.558594 1 L 31.558594 32 L 0.359375 32 Z M 0.359375 1 "/></clipPath><clipPath id="947bbc0563"><rect x="0" width="32" y="0" height="33"/></clipPath></defs><g id="cfec3cf624"><g clip-rule="nonzero" clip-path="url(#f948aaae6e)"><path style=" stroke:none;fill-rule:nonzero;fill:#572429;fill-opacity:1;" d="M 697.929688 296.828125 L 636.191406 296.828125 L 636.191406 265.960938 L 543.585938 265.960938 L 543.585938 173.355469 L 450.980469 173.355469 L 450.980469 142.484375 L 358.375 142.484375 L 358.375 49.878906 L 327.507812 49.878906 L 327.507812 19.011719 L 234.902344 19.011719 L 234.902344 49.878906 L 204.035156 49.878906 L 204.035156 142.484375 L 234.902344 142.484375 L 234.902344 698.117188 L 173.167969 698.117188 L 173.167969 728.984375 L 142.296875 728.984375 L 142.296875 790.722656 L 420.113281 790.722656 L 420.113281 728.984375 L 389.246094 728.984375 L 389.246094 698.117188 L 327.507812 698.117188 L 327.507812 358.5625 L 450.980469 358.5625 L 450.980469 389.433594 L 636.191406 389.433594 L 636.191406 358.5625 L 697.929688 358.5625 L 697.929688 327.695312 L 728.796875 327.695312 L 728.796875 296.828125 Z M 697.929688 296.828125 "/></g><path style=" stroke:none;fill-rule:nonzero;fill:#572429;fill-opacity:1;" d="M 234.902344 142.484375 L 265.773438 142.484375 L 265.773438 698.117188 L 234.902344 698.117188 Z M 234.902344 142.484375 "/><path style=" stroke:none;fill-rule:nonzero;fill:#8d95b5;fill-opacity:1;" d="M 265.773438 142.484375 L 296.640625 142.484375 L 296.640625 698.117188 L 265.773438 698.117188 Z M 265.773438 142.484375 "/><path style=" stroke:none;fill-rule:nonzero;fill:#b2b7cc;fill-opacity:1;" d="M 296.640625 142.484375 L 327.507812 142.484375 L 327.507812 698.117188 L 296.640625 698.117188 Z M 296.640625 142.484375 "/><path style=" stroke:none;fill-rule:nonzero;fill:#572429;fill-opacity:1;" d="M 296.640625 667.25 L 327.507812 667.25 L 327.507812 698.117188 L 296.640625 698.117188 Z M 296.640625 667.25 "/><path style=" stroke:none;fill-rule:nonzero;fill:#572429;fill-opacity:1;" d="M 234.902344 636.378906 L 296.640625 636.378906 L 296.640625 667.25 L 234.902344 667.25 Z M 234.902344 636.378906 "/><path style=" stroke:none;fill-rule:nonzero;fill:#cad0db;fill-opacity:1;" d="M 296.640625 605.511719 L 327.507812 605.511719 L 327.507812 636.378906 L 296.640625 636.378906 Z M 296.640625 605.511719 "/><path style=" stroke:none;fill-rule:nonzero;fill:#cad0db;fill-opacity:1;" d="M 296.640625 543.773438 L 327.507812 543.773438 L 327.507812 574.644531 L 296.640625 574.644531 Z M 296.640625 543.773438 "/><path style=" stroke:none;fill-rule:nonzero;fill:#cad0db;fill-opacity:1;" d="M 296.640625 482.039062 L 327.507812 482.039062 L 327.507812 512.90625 L 296.640625 512.90625 Z M 296.640625 482.039062 "/><path style=" stroke:none;fill-rule:nonzero;fill:#cad0db;fill-opacity:1;" d="M 296.640625 420.300781 L 327.507812 420.300781 L 327.507812 451.167969 L 296.640625 451.167969 Z M 296.640625 420.300781 "/><path style=" stroke:none;fill-rule:nonzero;fill:#cad0db;fill-opacity:1;" d="M 296.640625 358.5625 L 327.507812 358.5625 L 327.507812 389.433594 L 296.640625 389.433594 Z M 296.640625 358.5625 "/><path style=" stroke:none;fill-rule:nonzero;fill:#cad0db;fill-opacity:1;" d="M 296.640625 296.828125 L 327.507812 296.828125 L 327.507812 327.695312 L 296.640625 327.695312 Z M 296.640625 296.828125 "/><path style=" stroke:none;fill-rule:nonzero;fill:#cad0db;fill-opacity:1;" d="M 296.640625 235.089844 L 327.507812 235.089844 L 327.507812 265.960938 L 296.640625 265.960938 Z M 296.640625 235.089844 "/><path style=" stroke:none;fill-rule:nonzero;fill:#cad0db;fill-opacity:1;" d="M 296.640625 173.355469 L 327.507812 173.355469 L 327.507812 204.222656 L 296.640625 204.222656 Z M 296.640625 173.355469 "/><path style=" stroke:none;fill-rule:nonzero;fill:#8d95b5;fill-opacity:1;" d="M 234.902344 49.878906 L 327.507812 49.878906 L 327.507812 142.484375 L 234.902344 142.484375 Z M 234.902344 49.878906 "/><g clip-rule="nonzero" clip-path="url(#a78f05a618)"><path style=" stroke:none;fill-rule:nonzero;fill:#8d95b5;fill-opacity:1;" d="M 265.773438 19.011719 L 296.640625 19.011719 L 296.640625 80.75 L 265.773438 80.75 Z M 265.773438 19.011719 "/></g><path style=" stroke:none;fill-rule:nonzero;fill:#572429;fill-opacity:1;" d="M 204.035156 49.878906 L 234.902344 49.878906 L 234.902344 142.484375 L 204.035156 142.484375 Z M 204.035156 49.878906 "/><g clip-rule="nonzero" clip-path="url(#aded916a51)"><path style=" stroke:none;fill-rule:nonzero;fill:#572429;fill-opacity:1;" d="M 234.902344 19.011719 L 265.773438 19.011719 L 265.773438 49.878906 L 234.902344 49.878906 Z M 234.902344 19.011719 "/></g><g clip-rule="nonzero" clip-path="url(#0d98dfa280)"><path style=" stroke:none;fill-rule:nonzero;fill:#572429;fill-opacity:1;" d="M 265.773438 19.011719 L 296.640625 19.011719 L 296.640625 49.878906 L 265.773438 49.878906 Z M 265.773438 19.011719 "/></g><g clip-rule="nonzero" clip-path="url(#1869f44ac8)"><path style=" stroke:none;fill-rule:nonzero;fill:#572429;fill-opacity:1;" d="M 296.640625 19.011719 L 327.507812 19.011719 L 327.507812 49.878906 L 296.640625 49.878906 Z M 296.640625 19.011719 "/></g><path style=" stroke:none;fill-rule:nonzero;fill:#b2b7cc;fill-opacity:1;" d="M 327.507812 49.878906 L 358.375 49.878906 L 358.375 142.484375 L 327.507812 142.484375 Z M 327.507812 49.878906 "/><path style=" stroke:none;fill-rule:nonzero;fill:#cad0db;fill-opacity:1;" d="M 265.773438 49.878906 L 265.773438 80.75 L 296.640625 80.75 L 296.640625 111.617188 L 327.507812 111.617188 L 327.507812 49.878906 Z M 265.773438 49.878906 "/><g clip-rule="nonzero" clip-path="url(#791c96faee)"><path style=" stroke:none;fill-rule:nonzero;fill:#8d95b5;fill-opacity:1;" d="M 173.167969 698.117188 L 389.246094 698.117188 L 389.246094 790.722656 L 173.167969 790.722656 Z M 173.167969 698.117188 "/></g><g clip-rule="nonzero" clip-path="url(#048457cb29)"><path style=" stroke:none;fill-rule:nonzero;fill:#8d95b5;fill-opacity:1;" d="M 142.296875 728.984375 L 420.113281 728.984375 L 420.113281 790.722656 L 142.296875 790.722656 Z M 142.296875 728.984375 "/></g><path style=" stroke:none;fill-rule:nonzero;fill:#572429;fill-opacity:1;" d="M 173.167969 698.117188 L 234.902344 698.117188 L 234.902344 728.984375 L 173.167969 728.984375 Z M 173.167969 698.117188 "/><g clip-rule="nonzero" clip-path="url(#4efc3b2a87)"><path style=" stroke:none;fill-rule:nonzero;fill:#572429;fill-opacity:1;" d="M 142.296875 728.984375 L 173.167969 728.984375 L 173.167969 790.722656 L 142.296875 790.722656 Z M 142.296875 728.984375 "/></g><g clip-rule="nonzero" clip-path="url(#9ffaa58666)"><g mask="url(#cecabf7413)" transform="matrix(1,0,0,1,173,80)"><g clip-path="url(#6dded7863e)"><path style=" stroke:none;fill-rule:nonzero;fill:#572429;fill-opacity:1;" d="M 92.773438 62.484375 L 154.507812 62.484375 L 154.507812 93.355469 L 92.773438 93.355469 Z M 92.773438 62.484375 "/><g clip-rule="nonzero" clip-path="url(#f9ad05af40)"><path style=" stroke:none;fill-rule:nonzero;fill:#572429;fill-opacity:1;" d="M 92.773438 31.617188 L 92.773438 0.75 L 61.902344 0.75 L 61.902344 62.484375 L 92.773438 62.484375 Z M 92.773438 31.617188 "/></g><path style=" stroke:none;fill-rule:nonzero;fill:#572429;fill-opacity:1;" d="M 92.773438 432.90625 L 123.640625 432.90625 L 123.640625 463.773438 L 92.773438 463.773438 Z M 92.773438 432.90625 "/><path style=" stroke:none;fill-rule:nonzero;fill:#572429;fill-opacity:1;" d="M 92.773438 494.644531 L 123.640625 494.644531 L 123.640625 525.511719 L 92.773438 525.511719 Z M 92.773438 494.644531 "/><path style=" stroke:none;fill-rule:nonzero;fill:#572429;fill-opacity:1;" d="M 154.507812 31.617188 L 185.375 31.617188 L 185.375 62.484375 L 154.507812 62.484375 Z M 154.507812 31.617188 "/><g clip-rule="nonzero" clip-path="url(#d5073cd72b)"><path style=" stroke:none;fill-rule:nonzero;fill:#572429;fill-opacity:1;" d="M 154.507812 679.855469 L 154.507812 648.984375 L 123.640625 648.984375 L 123.640625 679.855469 L 92.773438 679.855469 L 92.773438 648.984375 L 123.640625 648.984375 L 123.640625 587.25 L 92.773438 587.25 L 92.773438 618.117188 L 61.902344 618.117188 L 61.902344 679.855469 L 31.035156 679.855469 L 31.035156 648.984375 L 0.167969 648.984375 L 0.167969 710.722656 L 247.113281 710.722656 L 247.113281 679.855469 Z M 154.507812 679.855469 "/></g></g><mask id="cecabf7413"><g filter="url(#5649751e3e)"><rect x="0" width="810" y="0" height="809.999993" style="fill:#000000;fill-opacity:0.5;stroke:none;"/></g></mask></g></g><path style=" stroke:none;fill-rule:nonzero;fill:#cad0db;fill-opacity:1;" d="M 327.507812 698.117188 L 389.246094 698.117188 L 389.246094 728.984375 L 327.507812 728.984375 Z M 327.507812 698.117188 "/><path style=" stroke:none;fill-rule:nonzero;fill:#cad0db;fill-opacity:1;" d="M 389.246094 728.984375 L 420.113281 728.984375 L 420.113281 759.855469 L 389.246094 759.855469 Z M 389.246094 728.984375 "/><g clip-rule="nonzero" clip-path="url(#e4bbc8454b)"><path style=" stroke:none;fill-rule:nonzero;fill:#b24650;fill-opacity:1;" d="M 697.929688 296.828125 L 636.191406 296.828125 L 636.191406 265.960938 L 543.585938 265.960938 L 543.585938 173.355469 L 450.980469 173.355469 L 450.980469 142.484375 L 327.507812 142.484375 L 327.507812 358.5625 L 450.980469 358.5625 L 450.980469 389.433594 L 636.191406 389.433594 L 636.191406 358.5625 L 697.929688 358.5625 L 697.929688 327.695312 L 728.796875 327.695312 L 728.796875 296.828125 Z M 697.929688 296.828125 "/></g><path style=" stroke:none;fill-rule:nonzero;fill:#572429;fill-opacity:1;" d="M 327.507812 327.695312 L 450.980469 327.695312 L 450.980469 358.5625 L 327.507812 358.5625 Z M 327.507812 327.695312 "/><path style=" stroke:none;fill-rule:nonzero;fill:#572429;fill-opacity:1;" d="M 450.980469 358.5625 L 636.191406 358.5625 L 636.191406 389.433594 L 450.980469 389.433594 Z M 450.980469 358.5625 "/><g mask="url(#ec37887f1c)" transform="matrix(1,0,0,1,450,173)"><g clip-path="url(#61ac5daf38)"><g clip-rule="nonzero" clip-path="url(#95e537758e)"><path style=" stroke:none;fill-rule:nonzero;fill:#572429;fill-opacity:1;" d="M 0.980469 0.355469 L 31.851562 0.355469 L 31.851562 185.5625 L 0.980469 185.5625 Z M 0.980469 0.355469 "/></g></g><mask id="ec37887f1c"><g filter="url(#5649751e3e)"><rect x="0" width="810" y="0" height="809.999993" style="fill:#000000;fill-opacity:0.5;stroke:none;"/></g></mask></g><g mask="url(#fb2d85edd0)" transform="matrix(1,0,0,1,327,142)"><g clip-path="url(#896bad7f2c)"><g clip-rule="nonzero" clip-path="url(#7c8de08538)"><path style=" stroke:none;fill-rule:nonzero;fill:#572429;fill-opacity:1;" d="M 0.507812 0.484375 L 31.375 0.484375 L 31.375 185.695312 L 0.507812 185.695312 Z M 0.507812 0.484375 "/></g></g><mask id="fb2d85edd0"><g filter="url(#5649751e3e)"><rect x="0" width="810" y="0" height="809.999993" style="fill:#000000;fill-opacity:0.5;stroke:none;"/></g></mask></g><g mask="url(#a98ad7c428)" transform="matrix(1,0,0,1,543,265)"><g clip-path="url(#4f58a7501f)"><g clip-rule="nonzero" clip-path="url(#4e2f799172)"><path style=" stroke:none;fill-rule:nonzero;fill:#572429;fill-opacity:1;" d="M 0.585938 0.960938 L 31.457031 0.960938 L 31.457031 93.5625 L 0.585938 93.5625 Z M 0.585938 0.960938 "/></g></g><mask id="a98ad7c428"><g filter="url(#5649751e3e)"><rect x="0" width="810" y="0" height="809.999993" style="fill:#000000;fill-opacity:0.5;stroke:none;"/></g></mask></g><g mask="url(#90521356f4)" transform="matrix(1,0,0,1,636,296)"><g clip-path="url(#10c004549a)"><g clip-rule="nonzero" clip-path="url(#28beec47a9)"><path style=" stroke:none;fill-rule:nonzero;fill:#572429;fill-opacity:1;" d="M 0.191406 0.828125 L 31.0625 0.828125 L 31.0625 62.5625 L 0.191406 62.5625 Z M 0.191406 0.828125 "/></g></g><mask id="90521356f4"><g filter="url(#5649751e3e)"><rect x="0" width="810" y="0" height="809.999993" style="fill:#000000;fill-opacity:0.5;stroke:none;"/></g></mask></g><g mask="url(#0e1ff0d8cc)" transform="matrix(1,0,0,1,574,265)"><g clip-path="url(#e1af653b9f)"><g clip-rule="nonzero" clip-path="url(#b4e973a1d6)"><path style=" stroke:none;fill-rule:nonzero;fill:#cad0db;fill-opacity:1;" d="M 0.457031 0.960938 L 62.191406 0.960938 L 62.191406 31.828125 L 0.457031 31.828125 Z M 0.457031 0.960938 "/></g></g><mask id="0e1ff0d8cc"><g filter="url(#5649751e3e)"><rect x="0" width="810" y="0" height="809.999993" style="fill:#000000;fill-opacity:0.5;stroke:none;"/></g></mask></g><g mask="url(#2a48c92b73)" transform="matrix(1,0,0,1,358,142)"><g clip-path="url(#a903c739c0)"><g clip-rule="nonzero" clip-path="url(#3d74d4d607)"><path style=" stroke:none;fill-rule:nonzero;fill:#cad0db;fill-opacity:1;" d="M 0.375 0.484375 L 92.980469 0.484375 L 92.980469 31.355469 L 0.375 31.355469 Z M 0.375 0.484375 "/></g></g><mask id="2a48c92b73"><g filter="url(#5649751e3e)"><rect x="0" width="810" y="0" height="809.999993" style="fill:#000000;fill-opacity:0.5;stroke:none;"/></g></mask></g><g mask="url(#e2fda0f5ce)" transform="matrix(1,0,0,1,481,173)"><g clip-path="url(#c0efbce44b)"><g clip-rule="nonzero" clip-path="url(#759d5dbdb7)"><path style=" stroke:none;fill-rule:nonzero;fill:#cad0db;fill-opacity:1;" d="M 0.851562 0.355469 L 62.585938 0.355469 L 62.585938 31.222656 L 0.851562 31.222656 Z M 0.851562 0.355469 "/></g></g><mask id="e2fda0f5ce"><g filter="url(#5649751e3e)"><rect x="0" width="810" y="0" height="809.999993" style="fill:#000000;fill-opacity:0.5;stroke:none;"/></g></mask></g><g mask="url(#c2f138d4e2)" transform="matrix(1,0,0,1,327,296)"><g clip-path="url(#f468c886d0)"><g clip-rule="nonzero" clip-path="url(#b9fbf496f2)"><path style=" stroke:none;fill-rule:nonzero;fill:#572429;fill-opacity:1;" d="M 0.507812 0.828125 L 31.375 0.828125 L 31.375 31.695312 L 0.507812 31.695312 Z M 0.507812 0.828125 "/></g></g><mask id="c2f138d4e2"><g filter="url(#5649751e3e)"><rect x="0" width="810" y="0" height="809.999993" style="fill:#000000;fill-opacity:0.25;stroke:none;"/></g></mask></g><g mask="url(#e0b4bffe51)" transform="matrix(1,0,0,1,389,296)"><g clip-path="url(#13e1446b28)"><g clip-rule="nonzero" clip-path="url(#8a0530c88f)"><path style=" stroke:none;fill-rule:nonzero;fill:#572429;fill-opacity:1;" d="M 0.246094 0.828125 L 31.113281 0.828125 L 31.113281 31.695312 L 0.246094 31.695312 Z M 0.246094 0.828125 "/></g></g><mask id="e0b4bffe51"><g filter="url(#5649751e3e)"><rect x="0" width="810" y="0" height="809.999993" style="fill:#000000;fill-opacity:0.25;stroke:none;"/></g></mask></g><g mask="url(#501e8161e5)" transform="matrix(1,0,0,1,358,265)"><g clip-path="url(#71fdc910ef)"><g clip-rule="nonzero" clip-path="url(#d57ce9ac0b)"><path style=" stroke:none;fill-rule:nonzero;fill:#572429;fill-opacity:1;" d="M 0.375 0.960938 L 31.246094 0.960938 L 31.246094 31.828125 L 0.375 31.828125 Z M 0.375 0.960938 "/></g></g><mask id="501e8161e5"><g filter="url(#5649751e3e)"><rect x="0" width="810" y="0" height="809.999993" style="fill:#000000;fill-opacity:0.25;stroke:none;"/></g></mask></g><g mask="url(#7c2ee31b72)" transform="matrix(1,0,0,1,420,173)"><g clip-path="url(#0c8536221c)"><g clip-rule="nonzero" clip-path="url(#21fb2bd7b6)"><path style=" stroke:none;fill-rule:nonzero;fill:#572429;fill-opacity:1;" d="M 0.113281 0.355469 L 30.980469 0.355469 L 30.980469 31.222656 L 0.113281 31.222656 Z M 0.113281 0.355469 "/></g></g><mask id="7c2ee31b72"><g filter="url(#5649751e3e)"><rect x="0" width="810" y="0" height="809.999993" style="fill:#000000;fill-opacity:0.25;stroke:none;"/></g></mask></g><g mask="url(#b5c2554fef)" transform="matrix(1,0,0,1,512,204)"><g clip-path="url(#eabf41d5d1)"><g clip-rule="nonzero" clip-path="url(#f4c250168c)"><path style=" stroke:none;fill-rule:nonzero;fill:#572429;fill-opacity:1;" d="M 0.71875 0.222656 L 31.585938 0.222656 L 31.585938 31.089844 L 0.71875 31.089844 Z M 0.71875 0.222656 "/></g></g><mask id="b5c2554fef"><g filter="url(#5649751e3e)"><rect x="0" width="810" y="0" height="809.999993" style="fill:#000000;fill-opacity:0.25;stroke:none;"/></g></mask></g><g mask="url(#7ed4fc4b47)" transform="matrix(1,0,0,1,481,327)"><g clip-path="url(#367bd67d5b)"><g clip-rule="nonzero" clip-path="url(#f2c8464f40)"><path style=" stroke:none;fill-rule:nonzero;fill:#572429;fill-opacity:1;" d="M 0.851562 0.695312 L 31.71875 0.695312 L 31.71875 31.5625 L 0.851562 31.5625 Z M 0.851562 0.695312 "/></g></g><mask id="7ed4fc4b47"><g filter="url(#5649751e3e)"><rect x="0" width="810" y="0" height="809.999993" style="fill:#000000;fill-opacity:0.25;stroke:none;"/></g></mask></g><g mask="url(#917a0266e9)" transform="matrix(1,0,0,1,481,265)"><g clip-path="url(#7ae0184f54)"><g clip-rule="nonzero" clip-path="url(#37ae4ad00f)"><path style=" stroke:none;fill-rule:nonzero;fill:#572429;fill-opacity:1;" d="M 0.851562 0.960938 L 31.71875 0.960938 L 31.71875 31.828125 L 0.851562 31.828125 Z M 0.851562 0.960938 "/></g></g><mask id="917a0266e9"><g filter="url(#5649751e3e)"><rect x="0" width="810" y="0" height="809.999993" style="fill:#000000;fill-opacity:0.25;stroke:none;"/></g></mask></g><g mask="url(#7e38205f3b)" transform="matrix(1,0,0,1,512,296)"><g clip-path="url(#f7affd9530)"><g clip-rule="nonzero" clip-path="url(#5688cdbf49)"><path style=" stroke:none;fill-rule:nonzero;fill:#572429;fill-opacity:1;" d="M 0.71875 0.828125 L 31.585938 0.828125 L 31.585938 31.695312 L 0.71875 31.695312 Z M 0.71875 0.828125 "/></g></g><mask id="7e38205f3b"><g filter="url(#5649751e3e)"><rect x="0" width="810" y="0" height="809.999993" style="fill:#000000;fill-opacity:0.25;stroke:none;"/></g></mask></g><g mask="url(#c264f8a33b)" transform="matrix(1,0,0,1,574,327)"><g clip-path="url(#e32111ae96)"><g clip-rule="nonzero" clip-path="url(#a4c7c464a0)"><path style=" stroke:none;fill-rule:nonzero;fill:#572429;fill-opacity:1;" d="M 0.457031 0.695312 L 31.324219 0.695312 L 31.324219 31.5625 L 0.457031 31.5625 Z M 0.457031 0.695312 "/></g></g><mask id="c264f8a33b"><g filter="url(#5649751e3e)"><rect x="0" width="810" y="0" height="809.999993" style="fill:#000000;fill-opacity:0.25;stroke:none;"/></g></mask></g><g mask="url(#44a86565c0)" transform="matrix(1,0,0,1,605,296)"><g clip-path="url(#cfcc27ce6a)"><g clip-rule="nonzero" clip-path="url(#bedbbbf7d8)"><path style=" stroke:none;fill-rule:nonzero;fill:#572429;fill-opacity:1;" d="M 0.324219 0.828125 L 31.191406 0.828125 L 31.191406 31.695312 L 0.324219 31.695312 Z M 0.324219 0.828125 "/></g></g><mask id="44a86565c0"><g filter="url(#5649751e3e)"><rect x="0" width="810" y="0" height="809.999993" style="fill:#000000;fill-opacity:0.25;stroke:none;"/></g></mask></g><g mask="url(#691bb94624)" transform="matrix(1,0,0,1,327,234)"><g clip-path="url(#947bbc0563)"><g clip-rule="nonzero" clip-path="url(#c06a477db5)"><path style=" stroke:none;fill-rule:nonzero;fill:#572429;fill-opacity:1;" d="M 0.507812 1.089844 L 31.375 1.089844 L 31.375 31.960938 L 0.507812 31.960938 Z M 0.507812 1.089844 "/></g></g><mask id="691bb94624"><g filter="url(#5649751e3e)"><rect x="0" width="810" y="0" height="809.999993" style="fill:#000000;fill-opacity:0.25;stroke:none;"/></g></mask></g></g></svg>