<svg xmlns="http://www.w3.org/2000/svg" xmlns:xlink="http://www.w3.org/1999/xlink" width="1080" zoomAndPan="magnify" viewBox="0 0 810 809.999993" height="1080" preserveAspectRatio="xMidYMid meet" version="1.2"><defs><filter x="0%" y="0%" width="100%" filterUnits="objectBoundingBox" id="a9d5f8915f" height="100%"><feColorMatrix values="0 0 0 0 1 0 0 0 0 1 0 0 0 0 1 0 0 0 1 0" type="matrix" in="SourceGraphic"/></filter><clipPath id="85d7de64c8"><path d="M 0.519531 1 L 763 1 L 763 596.800781 L 0.519531 596.800781 Z M 0.519531 1 "/></clipPath><clipPath id="d753792630"><rect x="0" width="763" y="0" height="597"/></clipPath><clipPath id="7ed2fccea1"><path d="M 1 2 L 717 2 L 717 407.28125 L 1 407.28125 Z M 1 2 "/></clipPath><clipPath id="7069cfb348"><rect x="0" width="718" y="0" height="408"/></clipPath><clipPath id="867013da58"><path d="M 0.519531 1 L 692 1 L 692 549.28125 L 0.519531 549.28125 Z M 0.519531 1 "/></clipPath><clipPath id="0f947c1871"><rect x="0" width="693" y="0" height="550"/></clipPath></defs><g id="22b598b6c7"><g mask="url(#fe90ed804f)" transform="matrix(1,0,0,1,47,104)"><g clip-path="url(#d753792630)"><g clip-rule="nonzero" clip-path="url(#85d7de64c8)"><path style=" stroke:none;fill-rule:nonzero;fill:#000000;fill-opacity:1;" d="M 739.175781 120.242188 L 739.175781 96.417969 L 715.351562 96.417969 L 715.351562 72.597656 L 405.648438 72.597656 L 405.648438 48.773438 L 381.824219 48.773438 L 381.824219 24.949219 L 358 24.949219 L 358 1.125 L 167.410156 1.125 L 167.410156 24.949219 L 143.589844 24.949219 L 143.589844 48.773438 L 119.765625 48.773438 L 119.765625 72.597656 L 95.941406 72.597656 L 95.941406 191.714844 L 24.46875 191.714844 L 24.46875 215.539062 L 0.648438 215.539062 L 0.648438 287.007812 L 24.46875 287.007812 L 24.46875 358.476562 L 48.292969 358.476562 L 48.292969 429.949219 L 72.117188 429.949219 L 72.117188 501.417969 L 95.941406 501.417969 L 95.941406 572.890625 L 119.765625 572.890625 L 119.765625 596.714844 L 739.175781 596.714844 L 739.175781 572.890625 L 763 572.890625 L 763 120.242188 Z M 739.175781 120.242188 "/></g></g><mask id="fe90ed804f"><g filter="url(#a9d5f8915f)"><rect x="0" width="810" y="0" height="809.999993" style="fill:#000000;fill-opacity:0.3;stroke:none;"/></g></mask></g><path style=" stroke:none;fill-rule:nonzero;fill:#ff3131;fill-opacity:1;" d="M 738.53125 200.417969 L 738.53125 176.597656 L 714.707031 176.597656 L 714.707031 152.773438 L 405 152.773438 L 405 128.949219 L 381.175781 128.949219 L 381.175781 105.125 L 357.351562 105.125 L 357.351562 81.300781 L 166.765625 81.300781 L 166.765625 105.125 L 142.941406 105.125 L 142.941406 128.949219 L 119.117188 128.949219 L 119.117188 152.773438 L 95.292969 152.773438 L 95.292969 271.890625 L 23.824219 271.890625 L 23.824219 295.714844 L 0 295.714844 L 0 367.183594 L 23.824219 367.183594 L 23.824219 438.65625 L 47.648438 438.65625 L 47.648438 510.125 L 71.46875 510.125 L 71.46875 581.597656 L 95.292969 581.597656 L 95.292969 653.066406 L 119.117188 653.066406 L 119.117188 676.890625 L 738.53125 676.890625 L 738.53125 653.066406 L 762.351562 653.066406 L 762.351562 200.417969 Z M 738.53125 200.417969 "/><path style=" stroke:none;fill-rule:nonzero;fill:#f7f7f0;fill-opacity:1;" d="M 47.648438 295.714844 L 47.648438 319.539062 L 23.824219 319.539062 L 23.824219 295.714844 Z M 95.292969 295.714844 L 71.46875 295.714844 L 71.46875 319.539062 L 95.292969 319.539062 Z M 142.941406 295.714844 L 119.117188 295.714844 L 119.117188 319.539062 L 142.941406 319.539062 Z M 190.589844 295.714844 L 166.765625 295.714844 L 166.765625 319.539062 L 190.589844 319.539062 Z M 238.234375 295.714844 L 214.410156 295.714844 L 214.410156 319.539062 L 238.234375 319.539062 Z M 285.882812 295.714844 L 262.058594 295.714844 L 262.058594 319.539062 L 285.882812 319.539062 Z M 333.53125 295.714844 L 309.707031 295.714844 L 309.707031 319.539062 L 333.53125 319.539062 Z M 381.175781 295.714844 L 357.351562 295.714844 L 357.351562 319.539062 L 381.175781 319.539062 Z M 428.824219 295.714844 L 405 295.714844 L 405 319.539062 L 428.824219 319.539062 Z M 476.46875 295.714844 L 452.648438 295.714844 L 452.648438 319.539062 L 476.46875 319.539062 Z M 524.117188 295.714844 L 500.292969 295.714844 L 500.292969 319.539062 L 524.117188 319.539062 Z M 571.765625 295.714844 L 547.941406 295.714844 L 547.941406 319.539062 L 571.765625 319.539062 Z M 119.117188 271.890625 L 142.941406 271.890625 L 142.941406 248.066406 L 119.117188 248.066406 Z M 166.765625 271.890625 L 190.589844 271.890625 L 190.589844 248.066406 L 166.765625 248.066406 Z M 214.410156 271.890625 L 238.234375 271.890625 L 238.234375 248.066406 L 214.410156 248.066406 Z M 262.058594 271.890625 L 285.882812 271.890625 L 285.882812 248.066406 L 262.058594 248.066406 Z M 309.707031 271.890625 L 333.53125 271.890625 L 333.53125 248.066406 L 309.707031 248.066406 Z M 357.351562 271.890625 L 381.175781 271.890625 L 381.175781 248.066406 L 357.351562 248.066406 Z M 405 271.890625 L 428.824219 271.890625 L 428.824219 248.066406 L 405 248.066406 Z M 452.648438 271.890625 L 476.46875 271.890625 L 476.46875 248.066406 L 452.648438 248.066406 Z M 500.292969 271.890625 L 524.117188 271.890625 L 524.117188 248.066406 L 500.292969 248.066406 Z M 547.941406 271.890625 L 571.765625 271.890625 L 571.765625 248.066406 L 547.941406 248.066406 Z M 595.589844 248.066406 L 595.589844 271.890625 L 619.410156 271.890625 L 619.410156 248.066406 Z M 643.234375 248.066406 L 643.234375 271.890625 L 667.058594 271.890625 L 667.058594 248.066406 Z M 690.882812 248.066406 L 690.882812 271.890625 L 714.707031 271.890625 L 714.707031 248.066406 Z M 142.941406 224.242188 L 142.941406 248.066406 L 166.765625 248.066406 L 166.765625 224.242188 Z M 190.589844 224.242188 L 190.589844 248.066406 L 214.410156 248.066406 L 214.410156 224.242188 Z M 238.234375 224.242188 L 238.234375 248.066406 L 262.058594 248.066406 L 262.058594 224.242188 Z M 285.882812 224.242188 L 285.882812 248.066406 L 309.707031 248.066406 L 309.707031 224.242188 Z M 333.53125 224.242188 L 333.53125 248.066406 L 357.351562 248.066406 L 357.351562 224.242188 Z M 381.175781 224.242188 L 381.175781 248.066406 L 405 248.066406 L 405 224.242188 Z M 428.824219 224.242188 L 428.824219 248.066406 L 452.648438 248.066406 L 452.648438 224.242188 Z M 476.46875 224.242188 L 476.46875 248.066406 L 500.292969 248.066406 L 500.292969 224.242188 Z M 524.117188 224.242188 L 524.117188 248.066406 L 547.941406 248.066406 L 547.941406 224.242188 Z M 571.765625 224.242188 L 571.765625 248.066406 L 595.589844 248.066406 L 595.589844 224.242188 Z M 619.410156 224.242188 L 619.410156 248.066406 L 643.234375 248.066406 L 643.234375 224.242188 Z M 667.058594 224.242188 L 667.058594 248.066406 L 690.882812 248.066406 L 690.882812 224.242188 Z M 714.707031 224.242188 L 714.707031 200.417969 L 690.882812 200.417969 L 690.882812 224.242188 Z M 738.53125 248.066406 L 738.53125 224.242188 L 714.707031 224.242188 L 714.707031 248.066406 Z M 619.410156 271.890625 L 619.410156 295.714844 L 643.234375 295.714844 L 643.234375 271.890625 Z M 667.058594 295.714844 L 690.882812 295.714844 L 690.882812 271.890625 L 667.058594 271.890625 Z M 667.058594 295.714844 L 643.234375 295.714844 L 643.234375 319.539062 L 667.058594 319.539062 Z M 690.882812 319.539062 L 714.707031 319.539062 L 714.707031 295.714844 L 690.882812 295.714844 Z M 619.410156 319.539062 L 619.410156 343.359375 L 643.234375 343.359375 L 643.234375 319.539062 Z M 667.058594 343.359375 L 690.882812 343.359375 L 690.882812 319.539062 L 667.058594 319.539062 Z M 643.234375 343.359375 L 643.234375 367.183594 L 667.058594 367.183594 L 667.058594 343.359375 Z M 690.882812 367.183594 L 714.707031 367.183594 L 714.707031 343.359375 L 690.882812 343.359375 Z M 643.234375 391.007812 L 643.234375 414.832031 L 667.058594 414.832031 L 667.058594 391.007812 Z M 690.882812 367.183594 L 667.058594 367.183594 L 667.058594 391.007812 L 690.882812 391.007812 Z M 690.882812 414.832031 L 714.707031 414.832031 L 714.707031 391.007812 L 690.882812 391.007812 Z M 738.53125 391.007812 L 738.53125 367.183594 L 714.707031 367.183594 L 714.707031 391.007812 Z M 738.53125 343.359375 L 738.53125 319.539062 L 714.707031 319.539062 L 714.707031 343.359375 Z M 738.53125 295.714844 L 738.53125 271.890625 L 714.707031 271.890625 L 714.707031 295.714844 Z M 667.058594 414.832031 L 667.058594 438.65625 L 690.882812 438.65625 L 690.882812 414.832031 Z M 690.882812 462.476562 L 714.707031 462.476562 L 714.707031 438.65625 L 690.882812 438.65625 Z M 690.882812 510.125 L 714.707031 510.125 L 714.707031 486.300781 L 690.882812 486.300781 Z M 738.53125 438.65625 L 738.53125 414.832031 L 714.707031 414.832031 L 714.707031 438.65625 Z M 667.058594 462.476562 L 667.058594 486.300781 L 690.882812 486.300781 L 690.882812 462.476562 Z M 738.53125 486.300781 L 738.53125 462.476562 L 714.707031 462.476562 L 714.707031 486.300781 Z M 690.882812 557.773438 L 714.707031 557.773438 L 714.707031 533.949219 L 690.882812 533.949219 Z M 738.53125 581.597656 L 738.53125 557.773438 L 714.707031 557.773438 L 714.707031 581.597656 Z M 714.707031 629.242188 L 738.53125 629.242188 L 738.53125 605.417969 L 714.707031 605.417969 Z M 738.53125 533.949219 L 738.53125 510.125 L 714.707031 510.125 L 714.707031 533.949219 Z M 119.117188 200.417969 L 119.117188 224.242188 L 142.941406 224.242188 L 142.941406 200.417969 Z M 166.765625 200.417969 L 166.765625 224.242188 L 190.589844 224.242188 L 190.589844 200.417969 Z M 214.410156 200.417969 L 214.410156 224.242188 L 238.234375 224.242188 L 238.234375 200.417969 Z M 262.058594 200.417969 L 262.058594 224.242188 L 285.882812 224.242188 L 285.882812 200.417969 Z M 309.707031 200.417969 L 309.707031 224.242188 L 333.53125 224.242188 L 333.53125 200.417969 Z M 357.351562 200.417969 L 357.351562 224.242188 L 381.175781 224.242188 L 381.175781 200.417969 Z M 428.824219 224.242188 L 428.824219 200.417969 L 405 200.417969 L 405 224.242188 Z M 476.46875 224.242188 L 476.46875 200.417969 L 452.648438 200.417969 L 452.648438 224.242188 Z M 524.117188 224.242188 L 524.117188 200.417969 L 500.292969 200.417969 L 500.292969 224.242188 Z M 571.765625 224.242188 L 571.765625 200.417969 L 547.941406 200.417969 L 547.941406 224.242188 Z M 619.410156 224.242188 L 619.410156 200.417969 L 595.589844 200.417969 L 595.589844 224.242188 Z M 667.058594 224.242188 L 667.058594 200.417969 L 643.234375 200.417969 L 643.234375 224.242188 Z M 166.765625 176.597656 L 142.941406 176.597656 L 142.941406 200.417969 L 166.765625 200.417969 Z M 166.765625 128.949219 L 142.941406 128.949219 L 142.941406 152.773438 L 166.765625 152.773438 Z M 190.589844 176.597656 L 190.589844 200.417969 L 214.410156 200.417969 L 214.410156 176.597656 Z M 238.234375 176.597656 L 238.234375 200.417969 L 262.058594 200.417969 L 262.058594 176.597656 Z M 285.882812 176.597656 L 285.882812 200.417969 L 309.707031 200.417969 L 309.707031 176.597656 Z M 357.351562 200.417969 L 357.351562 176.597656 L 333.53125 176.597656 L 333.53125 200.417969 Z M 190.589844 152.773438 L 166.765625 152.773438 L 166.765625 176.597656 L 190.589844 176.597656 Z M 119.117188 152.773438 L 119.117188 176.597656 L 142.941406 176.597656 L 142.941406 152.773438 Z M 238.234375 176.597656 L 238.234375 152.773438 L 214.410156 152.773438 L 214.410156 176.597656 Z M 285.882812 176.597656 L 285.882812 152.773438 L 262.058594 152.773438 L 262.058594 176.597656 Z M 333.53125 176.597656 L 333.53125 152.773438 L 309.707031 152.773438 L 309.707031 176.597656 Z M 214.410156 152.773438 L 214.410156 128.949219 L 190.589844 128.949219 L 190.589844 152.773438 Z M 262.058594 152.773438 L 262.058594 128.949219 L 238.234375 128.949219 L 238.234375 152.773438 Z M 309.707031 152.773438 L 309.707031 128.949219 L 285.882812 128.949219 L 285.882812 152.773438 Z M 190.589844 105.125 L 166.765625 105.125 L 166.765625 128.949219 L 190.589844 128.949219 Z M 238.234375 105.125 L 214.410156 105.125 L 214.410156 128.949219 L 238.234375 128.949219 Z M 285.882812 105.125 L 262.058594 105.125 L 262.058594 128.949219 L 285.882812 128.949219 Z M 357.351562 152.773438 L 357.351562 128.949219 L 333.53125 128.949219 L 333.53125 152.773438 Z M 381.175781 176.597656 L 381.175781 152.773438 L 357.351562 152.773438 L 357.351562 176.597656 Z M 333.53125 105.125 L 309.707031 105.125 L 309.707031 128.949219 L 333.53125 128.949219 Z M 405 200.417969 L 405 176.597656 L 381.175781 176.597656 L 381.175781 200.417969 Z M 452.648438 176.597656 L 428.824219 176.597656 L 428.824219 200.417969 L 452.648438 200.417969 Z M 500.292969 176.597656 L 476.46875 176.597656 L 476.46875 200.417969 L 500.292969 200.417969 Z M 547.941406 176.597656 L 524.117188 176.597656 L 524.117188 200.417969 L 547.941406 200.417969 Z M 595.589844 176.597656 L 571.765625 176.597656 L 571.765625 200.417969 L 595.589844 200.417969 Z M 643.234375 176.597656 L 619.410156 176.597656 L 619.410156 200.417969 L 643.234375 200.417969 Z M 690.882812 176.597656 L 667.058594 176.597656 L 667.058594 200.417969 L 690.882812 200.417969 Z M 595.589844 343.359375 L 595.589844 319.539062 L 571.765625 319.539062 L 571.765625 343.359375 Z M 547.941406 343.359375 L 547.941406 319.539062 L 524.117188 319.539062 L 524.117188 343.359375 Z M 500.292969 343.359375 L 500.292969 319.539062 L 476.46875 319.539062 L 476.46875 343.359375 Z M 452.648438 343.359375 L 452.648438 319.539062 L 428.824219 319.539062 L 428.824219 343.359375 Z M 405 343.359375 L 405 319.539062 L 381.175781 319.539062 L 381.175781 343.359375 Z M 357.351562 343.359375 L 357.351562 319.539062 L 333.53125 319.539062 L 333.53125 343.359375 Z M 309.707031 343.359375 L 309.707031 319.539062 L 285.882812 319.539062 L 285.882812 343.359375 Z M 262.058594 343.359375 L 262.058594 319.539062 L 238.234375 319.539062 L 238.234375 343.359375 Z M 214.410156 343.359375 L 214.410156 319.539062 L 190.589844 319.539062 L 190.589844 343.359375 Z M 166.765625 343.359375 L 166.765625 319.539062 L 142.941406 319.539062 L 142.941406 343.359375 Z M 119.117188 343.359375 L 119.117188 319.539062 L 95.292969 319.539062 L 95.292969 343.359375 Z M 71.46875 319.539062 L 47.648438 319.539062 L 47.648438 343.359375 L 71.46875 343.359375 Z M 23.824219 343.359375 L 23.824219 367.183594 L 47.648438 367.183594 L 47.648438 343.359375 Z M 71.46875 343.359375 L 71.46875 367.183594 L 95.292969 367.183594 L 95.292969 343.359375 Z M 142.941406 367.183594 L 142.941406 343.359375 L 119.117188 343.359375 L 119.117188 367.183594 Z M 190.589844 367.183594 L 190.589844 343.359375 L 166.765625 343.359375 L 166.765625 367.183594 Z M 238.234375 367.183594 L 238.234375 343.359375 L 214.410156 343.359375 L 214.410156 367.183594 Z M 285.882812 367.183594 L 285.882812 343.359375 L 262.058594 343.359375 L 262.058594 367.183594 Z M 333.53125 367.183594 L 333.53125 343.359375 L 309.707031 343.359375 L 309.707031 367.183594 Z M 381.175781 367.183594 L 381.175781 343.359375 L 357.351562 343.359375 L 357.351562 367.183594 Z M 428.824219 367.183594 L 428.824219 343.359375 L 405 343.359375 L 405 367.183594 Z M 476.46875 367.183594 L 476.46875 343.359375 L 452.648438 343.359375 L 452.648438 367.183594 Z M 524.117188 367.183594 L 524.117188 343.359375 L 500.292969 343.359375 L 500.292969 367.183594 Z M 547.941406 367.183594 L 571.765625 367.183594 L 571.765625 343.359375 L 547.941406 343.359375 Z M 47.648438 367.183594 L 47.648438 391.007812 L 71.46875 391.007812 L 71.46875 367.183594 Z M 119.117188 367.183594 L 95.292969 367.183594 L 95.292969 391.007812 L 119.117188 391.007812 Z M 166.765625 391.007812 L 166.765625 367.183594 L 142.941406 367.183594 L 142.941406 391.007812 Z M 214.410156 391.007812 L 214.410156 367.183594 L 190.589844 367.183594 L 190.589844 391.007812 Z M 262.058594 391.007812 L 262.058594 367.183594 L 238.234375 367.183594 L 238.234375 391.007812 Z M 309.707031 391.007812 L 309.707031 367.183594 L 285.882812 367.183594 L 285.882812 391.007812 Z M 357.351562 391.007812 L 357.351562 367.183594 L 333.53125 367.183594 L 333.53125 391.007812 Z M 405 391.007812 L 405 367.183594 L 381.175781 367.183594 L 381.175781 391.007812 Z M 452.648438 391.007812 L 452.648438 367.183594 L 428.824219 367.183594 L 428.824219 391.007812 Z M 500.292969 391.007812 L 500.292969 367.183594 L 476.46875 367.183594 L 476.46875 391.007812 Z M 524.117188 391.007812 L 547.941406 391.007812 L 547.941406 367.183594 L 524.117188 367.183594 Z M 595.589844 391.007812 L 595.589844 367.183594 L 571.765625 367.183594 L 571.765625 391.007812 Z M 95.292969 391.007812 L 71.46875 391.007812 L 71.46875 414.832031 L 95.292969 414.832031 Z M 142.941406 391.007812 L 119.117188 391.007812 L 119.117188 414.832031 L 142.941406 414.832031 Z M 190.589844 414.832031 L 190.589844 391.007812 L 166.765625 391.007812 L 166.765625 414.832031 Z M 238.234375 414.832031 L 238.234375 391.007812 L 214.410156 391.007812 L 214.410156 414.832031 Z M 285.882812 414.832031 L 285.882812 391.007812 L 262.058594 391.007812 L 262.058594 414.832031 Z M 333.53125 414.832031 L 333.53125 391.007812 L 309.707031 391.007812 L 309.707031 414.832031 Z M 381.175781 414.832031 L 381.175781 391.007812 L 357.351562 391.007812 L 357.351562 414.832031 Z M 428.824219 414.832031 L 428.824219 391.007812 L 405 391.007812 L 405 414.832031 Z M 476.46875 414.832031 L 476.46875 391.007812 L 452.648438 391.007812 L 452.648438 414.832031 Z M 500.292969 414.832031 L 524.117188 414.832031 L 524.117188 391.007812 L 500.292969 391.007812 Z M 571.765625 414.832031 L 571.765625 391.007812 L 547.941406 391.007812 L 547.941406 414.832031 Z M 619.410156 414.832031 L 619.410156 391.007812 L 595.589844 391.007812 L 595.589844 414.832031 Z M 47.648438 414.832031 L 47.648438 438.65625 L 71.46875 438.65625 L 71.46875 414.832031 Z M 119.117188 414.832031 L 95.292969 414.832031 L 95.292969 438.65625 L 119.117188 438.65625 Z M 142.941406 414.832031 L 142.941406 438.65625 L 166.765625 438.65625 L 166.765625 414.832031 Z M 190.589844 414.832031 L 190.589844 438.65625 L 214.410156 438.65625 L 214.410156 414.832031 Z M 262.058594 438.65625 L 262.058594 414.832031 L 238.234375 414.832031 L 238.234375 438.65625 Z M 309.707031 438.65625 L 309.707031 414.832031 L 285.882812 414.832031 L 285.882812 438.65625 Z M 357.351562 438.65625 L 357.351562 414.832031 L 333.53125 414.832031 L 333.53125 438.65625 Z M 405 438.65625 L 405 414.832031 L 381.175781 414.832031 L 381.175781 438.65625 Z M 452.648438 438.65625 L 452.648438 414.832031 L 428.824219 414.832031 L 428.824219 438.65625 Z M 476.46875 438.65625 L 500.292969 438.65625 L 500.292969 414.832031 L 476.46875 414.832031 Z M 547.941406 438.65625 L 547.941406 414.832031 L 524.117188 414.832031 L 524.117188 438.65625 Z M 571.765625 438.65625 L 595.589844 438.65625 L 595.589844 414.832031 L 571.765625 414.832031 Z M 95.292969 438.65625 L 71.46875 438.65625 L 71.46875 462.476562 L 95.292969 462.476562 Z M 119.117188 438.65625 L 119.117188 462.476562 L 142.941406 462.476562 L 142.941406 438.65625 Z M 166.765625 438.65625 L 166.765625 462.476562 L 190.589844 462.476562 L 190.589844 438.65625 Z M 238.234375 438.65625 L 214.410156 438.65625 L 214.410156 462.476562 L 238.234375 462.476562 Z M 285.882812 462.476562 L 285.882812 438.65625 L 262.058594 438.65625 L 262.058594 462.476562 Z M 333.53125 462.476562 L 333.53125 438.65625 L 309.707031 438.65625 L 309.707031 462.476562 Z M 381.175781 462.476562 L 381.175781 438.65625 L 357.351562 438.65625 L 357.351562 462.476562 Z M 428.824219 462.476562 L 428.824219 438.65625 L 405 438.65625 L 405 462.476562 Z M 452.648438 462.476562 L 476.46875 462.476562 L 476.46875 438.65625 L 452.648438 438.65625 Z M 524.117188 462.476562 L 524.117188 438.65625 L 500.292969 438.65625 L 500.292969 462.476562 Z M 547.941406 462.476562 L 571.765625 462.476562 L 571.765625 438.65625 L 547.941406 438.65625 Z M 619.410156 462.476562 L 619.410156 438.65625 L 595.589844 438.65625 L 595.589844 462.476562 Z M 47.648438 462.476562 L 47.648438 486.300781 L 71.46875 486.300781 L 71.46875 462.476562 Z M 95.292969 462.476562 L 95.292969 486.300781 L 119.117188 486.300781 L 119.117188 462.476562 Z M 142.941406 462.476562 L 142.941406 486.300781 L 166.765625 486.300781 L 166.765625 462.476562 Z M 214.410156 462.476562 L 190.589844 462.476562 L 190.589844 486.300781 L 214.410156 486.300781 Z M 262.058594 462.476562 L 238.234375 462.476562 L 238.234375 486.300781 L 262.058594 486.300781 Z M 285.882812 462.476562 L 285.882812 486.300781 L 309.707031 486.300781 L 309.707031 462.476562 Z M 333.53125 462.476562 L 333.53125 486.300781 L 357.351562 486.300781 L 357.351562 462.476562 Z M 381.175781 462.476562 L 381.175781 486.300781 L 405 486.300781 L 405 462.476562 Z M 428.824219 486.300781 L 452.648438 486.300781 L 452.648438 462.476562 L 428.824219 462.476562 Z M 500.292969 486.300781 L 500.292969 462.476562 L 476.46875 462.476562 L 476.46875 486.300781 Z M 524.117188 486.300781 L 547.941406 486.300781 L 547.941406 462.476562 L 524.117188 462.476562 Z M 595.589844 486.300781 L 595.589844 462.476562 L 571.765625 462.476562 L 571.765625 486.300781 Z M 643.234375 486.300781 L 643.234375 462.476562 L 619.410156 462.476562 L 619.410156 486.300781 Z M 71.46875 486.300781 L 71.46875 510.125 L 95.292969 510.125 L 95.292969 486.300781 Z M 119.117188 486.300781 L 119.117188 510.125 L 142.941406 510.125 L 142.941406 486.300781 Z M 190.589844 486.300781 L 166.765625 486.300781 L 166.765625 510.125 L 190.589844 510.125 Z M 238.234375 486.300781 L 214.410156 486.300781 L 214.410156 510.125 L 238.234375 510.125 Z M 262.058594 486.300781 L 262.058594 510.125 L 285.882812 510.125 L 285.882812 486.300781 Z M 309.707031 486.300781 L 309.707031 510.125 L 333.53125 510.125 L 333.53125 486.300781 Z M 357.351562 486.300781 L 357.351562 510.125 L 381.175781 510.125 L 381.175781 486.300781 Z M 405 486.300781 L 405 510.125 L 428.824219 510.125 L 428.824219 486.300781 Z M 452.648438 486.300781 L 452.648438 510.125 L 476.46875 510.125 L 476.46875 486.300781 Z M 500.292969 510.125 L 524.117188 510.125 L 524.117188 486.300781 L 500.292969 486.300781 Z M 571.765625 510.125 L 571.765625 486.300781 L 547.941406 486.300781 L 547.941406 510.125 Z M 595.589844 510.125 L 619.410156 510.125 L 619.410156 486.300781 L 595.589844 486.300781 Z M 95.292969 510.125 L 95.292969 533.949219 L 119.117188 533.949219 L 119.117188 510.125 Z M 166.765625 510.125 L 142.941406 510.125 L 142.941406 533.949219 L 166.765625 533.949219 Z M 214.410156 510.125 L 190.589844 510.125 L 190.589844 533.949219 L 214.410156 533.949219 Z M 238.234375 510.125 L 238.234375 533.949219 L 262.058594 533.949219 L 262.058594 510.125 Z M 285.882812 510.125 L 285.882812 533.949219 L 309.707031 533.949219 L 309.707031 510.125 Z M 333.53125 510.125 L 333.53125 533.949219 L 357.351562 533.949219 L 357.351562 510.125 Z M 381.175781 510.125 L 381.175781 533.949219 L 405 533.949219 L 405 510.125 Z M 428.824219 510.125 L 428.824219 533.949219 L 452.648438 533.949219 L 452.648438 510.125 Z M 476.46875 510.125 L 476.46875 533.949219 L 500.292969 533.949219 L 500.292969 510.125 Z M 547.941406 533.949219 L 547.941406 510.125 L 524.117188 510.125 L 524.117188 533.949219 Z M 571.765625 533.949219 L 595.589844 533.949219 L 595.589844 510.125 L 571.765625 510.125 Z M 643.234375 533.949219 L 643.234375 510.125 L 619.410156 510.125 L 619.410156 533.949219 Z M 142.941406 533.949219 L 119.117188 533.949219 L 119.117188 557.773438 L 142.941406 557.773438 Z M 190.589844 533.949219 L 166.765625 533.949219 L 166.765625 557.773438 L 190.589844 557.773438 Z M 214.410156 533.949219 L 214.410156 557.773438 L 238.234375 557.773438 L 238.234375 533.949219 Z M 262.058594 533.949219 L 262.058594 557.773438 L 285.882812 557.773438 L 285.882812 533.949219 Z M 309.707031 533.949219 L 309.707031 557.773438 L 333.53125 557.773438 L 333.53125 533.949219 Z M 357.351562 533.949219 L 357.351562 557.773438 L 381.175781 557.773438 L 381.175781 533.949219 Z M 405 533.949219 L 405 557.773438 L 428.824219 557.773438 L 428.824219 533.949219 Z M 452.648438 533.949219 L 452.648438 557.773438 L 476.46875 557.773438 L 476.46875 533.949219 Z M 500.292969 533.949219 L 500.292969 557.773438 L 524.117188 557.773438 L 524.117188 533.949219 Z M 547.941406 557.773438 L 571.765625 557.773438 L 571.765625 533.949219 L 547.941406 533.949219 Z M 619.410156 557.773438 L 619.410156 533.949219 L 595.589844 533.949219 L 595.589844 557.773438 Z M 667.058594 557.773438 L 667.058594 533.949219 L 643.234375 533.949219 L 643.234375 557.773438 Z M 95.292969 557.773438 L 95.292969 581.597656 L 119.117188 581.597656 L 119.117188 557.773438 Z M 166.765625 557.773438 L 142.941406 557.773438 L 142.941406 581.597656 L 166.765625 581.597656 Z M 190.589844 557.773438 L 190.589844 581.597656 L 214.410156 581.597656 L 214.410156 557.773438 Z M 238.234375 557.773438 L 238.234375 581.597656 L 262.058594 581.597656 L 262.058594 557.773438 Z M 285.882812 557.773438 L 285.882812 581.597656 L 309.707031 581.597656 L 309.707031 557.773438 Z M 333.53125 557.773438 L 333.53125 581.597656 L 357.351562 581.597656 L 357.351562 557.773438 Z M 381.175781 557.773438 L 381.175781 581.597656 L 405 581.597656 L 405 557.773438 Z M 428.824219 557.773438 L 428.824219 581.597656 L 452.648438 581.597656 L 452.648438 557.773438 Z M 476.46875 557.773438 L 476.46875 581.597656 L 500.292969 581.597656 L 500.292969 557.773438 Z M 524.117188 557.773438 L 524.117188 581.597656 L 547.941406 581.597656 L 547.941406 557.773438 Z M 571.765625 557.773438 L 571.765625 581.597656 L 595.589844 581.597656 L 595.589844 557.773438 Z M 619.410156 581.597656 L 643.234375 581.597656 L 643.234375 557.773438 L 619.410156 557.773438 Z M 142.941406 581.597656 L 119.117188 581.597656 L 119.117188 605.417969 L 142.941406 605.417969 Z M 166.765625 581.597656 L 166.765625 605.417969 L 190.589844 605.417969 L 190.589844 581.597656 Z M 214.410156 581.597656 L 214.410156 605.417969 L 238.234375 605.417969 L 238.234375 581.597656 Z M 262.058594 581.597656 L 262.058594 605.417969 L 285.882812 605.417969 L 285.882812 581.597656 Z M 309.707031 581.597656 L 309.707031 605.417969 L 333.53125 605.417969 L 333.53125 581.597656 Z M 357.351562 581.597656 L 357.351562 605.417969 L 381.175781 605.417969 L 381.175781 581.597656 Z M 405 581.597656 L 405 605.417969 L 428.824219 605.417969 L 428.824219 581.597656 Z M 452.648438 581.597656 L 452.648438 605.417969 L 476.46875 605.417969 L 476.46875 581.597656 Z M 500.292969 581.597656 L 500.292969 605.417969 L 524.117188 605.417969 L 524.117188 581.597656 Z M 547.941406 581.597656 L 547.941406 605.417969 L 571.765625 605.417969 L 571.765625 581.597656 Z M 595.589844 581.597656 L 595.589844 605.417969 L 619.410156 605.417969 L 619.410156 581.597656 Z M 667.058594 605.417969 L 667.058594 581.597656 L 643.234375 581.597656 L 643.234375 605.417969 Z M 95.292969 605.417969 L 95.292969 629.242188 L 119.117188 629.242188 L 119.117188 605.417969 Z M 142.941406 605.417969 L 142.941406 629.242188 L 166.765625 629.242188 L 166.765625 605.417969 Z M 190.589844 605.417969 L 190.589844 629.242188 L 214.410156 629.242188 L 214.410156 605.417969 Z M 238.234375 605.417969 L 238.234375 629.242188 L 262.058594 629.242188 L 262.058594 605.417969 Z M 285.882812 605.417969 L 285.882812 629.242188 L 309.707031 629.242188 L 309.707031 605.417969 Z M 333.53125 605.417969 L 333.53125 629.242188 L 357.351562 629.242188 L 357.351562 605.417969 Z M 381.175781 605.417969 L 381.175781 629.242188 L 405 629.242188 L 405 605.417969 Z M 428.824219 605.417969 L 428.824219 629.242188 L 452.648438 629.242188 L 452.648438 605.417969 Z M 476.46875 605.417969 L 476.46875 629.242188 L 500.292969 629.242188 L 500.292969 605.417969 Z M 524.117188 605.417969 L 524.117188 629.242188 L 547.941406 629.242188 L 547.941406 605.417969 Z M 571.765625 605.417969 L 571.765625 629.242188 L 595.589844 629.242188 L 595.589844 605.417969 Z M 619.410156 605.417969 L 619.410156 629.242188 L 643.234375 629.242188 L 643.234375 605.417969 Z M 667.058594 629.242188 L 690.882812 629.242188 L 690.882812 605.417969 L 667.058594 605.417969 Z M 119.117188 653.066406 L 142.941406 653.066406 L 142.941406 629.242188 L 119.117188 629.242188 Z M 166.765625 653.066406 L 190.589844 653.066406 L 190.589844 629.242188 L 166.765625 629.242188 Z M 214.410156 653.066406 L 238.234375 653.066406 L 238.234375 629.242188 L 214.410156 629.242188 Z M 262.058594 653.066406 L 285.882812 653.066406 L 285.882812 629.242188 L 262.058594 629.242188 Z M 309.707031 653.066406 L 333.53125 653.066406 L 333.53125 629.242188 L 309.707031 629.242188 Z M 357.351562 653.066406 L 381.175781 653.066406 L 381.175781 629.242188 L 357.351562 629.242188 Z M 405 653.066406 L 428.824219 653.066406 L 428.824219 629.242188 L 405 629.242188 Z M 452.648438 653.066406 L 476.46875 653.066406 L 476.46875 629.242188 L 452.648438 629.242188 Z M 500.292969 653.066406 L 524.117188 653.066406 L 524.117188 629.242188 L 500.292969 629.242188 Z M 547.941406 653.066406 L 571.765625 653.066406 L 571.765625 629.242188 L 547.941406 629.242188 Z M 595.589844 653.066406 L 619.410156 653.066406 L 619.410156 629.242188 L 595.589844 629.242188 Z M 643.234375 653.066406 L 667.058594 653.066406 L 667.058594 629.242188 L 643.234375 629.242188 Z M 643.234375 653.066406 "/><path style=" stroke:none;fill-rule:nonzero;fill:#000000;fill-opacity:1;" d="M 190.589844 105.125 L 166.765625 105.125 L 166.765625 81.300781 L 357.351562 81.300781 L 357.351562 105.125 Z M 166.765625 105.125 L 142.941406 105.125 L 142.941406 128.949219 L 166.765625 128.949219 Z M 381.175781 128.949219 L 381.175781 105.125 L 357.351562 105.125 L 357.351562 128.949219 Z M 142.941406 128.949219 L 119.117188 128.949219 L 119.117188 152.773438 L 142.941406 152.773438 Z M 405 152.773438 L 405 128.949219 L 381.175781 128.949219 L 381.175781 152.773438 Z M 428.824219 176.597656 L 714.707031 176.597656 L 714.707031 152.773438 L 405 152.773438 L 405 176.597656 Z M 738.53125 200.417969 L 738.53125 176.597656 L 714.707031 176.597656 L 714.707031 200.417969 Z M 738.53125 200.417969 L 738.53125 629.242188 L 714.707031 629.242188 L 714.707031 581.597656 L 690.882812 581.597656 L 690.882812 653.066406 L 119.117188 653.066406 L 119.117188 676.890625 L 738.53125 676.890625 L 738.53125 653.066406 L 762.351562 653.066406 L 762.351562 200.417969 Z M 71.46875 295.714844 L 595.589844 295.714844 L 595.589844 271.890625 L 119.117188 271.890625 L 119.117188 152.773438 L 95.292969 152.773438 L 95.292969 271.890625 L 23.824219 271.890625 L 23.824219 295.714844 Z M 23.824219 319.539062 L 23.824219 295.714844 L 0 295.714844 L 0 367.183594 L 23.824219 367.183594 Z M 619.410156 319.539062 L 619.410156 295.714844 L 595.589844 295.714844 L 595.589844 367.183594 L 619.410156 367.183594 Z M 47.648438 391.007812 L 47.648438 367.183594 L 23.824219 367.183594 L 23.824219 438.65625 L 47.648438 438.65625 Z M 643.234375 391.007812 L 643.234375 367.183594 L 619.410156 367.183594 L 619.410156 438.65625 L 643.234375 438.65625 Z M 71.46875 462.476562 L 71.46875 438.65625 L 47.648438 438.65625 L 47.648438 510.125 L 71.46875 510.125 Z M 667.058594 462.476562 L 667.058594 438.65625 L 643.234375 438.65625 L 643.234375 510.125 L 667.058594 510.125 Z M 95.292969 533.949219 L 95.292969 510.125 L 71.46875 510.125 L 71.46875 581.597656 L 95.292969 581.597656 Z M 690.882812 533.949219 L 690.882812 510.125 L 667.058594 510.125 L 667.058594 581.597656 L 690.882812 581.597656 Z M 119.117188 605.417969 L 119.117188 581.597656 L 95.292969 581.597656 L 95.292969 653.066406 L 119.117188 653.066406 Z M 119.117188 605.417969 "/><g mask="url(#3ad939f534)" transform="matrix(1,0,0,1,22,246)"><g clip-path="url(#7069cfb348)"><g clip-rule="nonzero" clip-path="url(#7ed2fccea1)"><path style=" stroke:none;fill-rule:nonzero;fill:#000000;fill-opacity:1;" d="M 597.410156 25.890625 L 597.410156 49.714844 L 573.589844 49.714844 L 573.589844 25.890625 Z M 621.234375 73.539062 L 621.234375 49.714844 L 597.410156 49.714844 L 597.410156 121.183594 L 621.234375 121.183594 Z M 645.058594 145.007812 L 645.058594 121.183594 L 621.234375 121.183594 L 621.234375 192.65625 L 645.058594 192.65625 Z M 668.882812 216.476562 L 668.882812 192.65625 L 645.058594 192.65625 L 645.058594 264.125 L 668.882812 264.125 Z M 692.707031 287.949219 L 692.707031 264.125 L 668.882812 264.125 L 668.882812 335.597656 L 692.707031 335.597656 Z M 692.707031 335.597656 L 692.707031 383.242188 L 716.53125 383.242188 L 716.53125 335.597656 Z M 97.117188 2.066406 L 97.117188 25.890625 L 573.589844 25.890625 L 573.589844 2.066406 Z M 1.824219 49.714844 L 1.824219 121.183594 L 25.648438 121.183594 L 25.648438 49.714844 Z M 25.648438 121.183594 L 25.648438 192.65625 L 49.46875 192.65625 L 49.46875 121.183594 Z M 49.46875 192.65625 L 49.46875 264.125 L 73.292969 264.125 L 73.292969 192.65625 Z M 73.292969 264.125 L 73.292969 335.597656 L 97.117188 335.597656 L 97.117188 264.125 Z M 120.941406 335.597656 L 97.117188 335.597656 L 97.117188 407.066406 L 645.058594 407.066406 L 645.058594 383.242188 L 120.941406 383.242188 Z M 120.941406 335.597656 "/></g></g><mask id="3ad939f534"><g filter="url(#a9d5f8915f)"><rect x="0" width="810" y="0" height="809.999993" style="fill:#000000;fill-opacity:0.3;stroke:none;"/></g></mask></g><g mask="url(#98aef6aedd)" transform="matrix(1,0,0,1,47,104)"><g clip-path="url(#0f947c1871)"><g clip-rule="nonzero" clip-path="url(#867013da58)"><path style=" stroke:none;fill-rule:nonzero;fill:#cad0db;fill-opacity:1;" d="M 548.589844 215.539062 L 548.589844 263.183594 L 524.765625 263.183594 L 524.765625 215.539062 L 0.648438 215.539062 L 0.648438 191.714844 L 548.589844 191.714844 Z M 358 72.597656 L 358 96.417969 L 667.707031 96.417969 L 667.707031 72.597656 Z M 548.589844 263.183594 L 548.589844 334.65625 L 572.410156 334.65625 L 572.410156 263.183594 Z M 572.410156 334.65625 L 572.410156 406.125 L 596.234375 406.125 L 596.234375 334.65625 Z M 596.234375 406.125 L 596.234375 477.597656 L 620.058594 477.597656 L 620.058594 406.125 Z M 620.058594 549.066406 L 643.882812 549.066406 L 643.882812 477.597656 L 620.058594 477.597656 Z M 667.707031 96.417969 L 667.707031 525.242188 L 691.53125 525.242188 L 691.53125 96.417969 Z M 119.765625 1.125 L 119.765625 24.949219 L 310.351562 24.949219 L 310.351562 1.125 Z M 310.351562 24.949219 L 310.351562 48.773438 L 334.175781 48.773438 L 334.175781 24.949219 Z M 95.941406 48.773438 L 119.765625 48.773438 L 119.765625 24.949219 L 95.941406 24.949219 Z M 334.175781 48.773438 L 334.175781 72.597656 L 358 72.597656 L 358 48.773438 Z M 72.117188 144.066406 L 95.941406 144.066406 L 95.941406 48.773438 L 72.117188 48.773438 Z M 72.117188 144.066406 "/></g></g><mask id="98aef6aedd"><g filter="url(#a9d5f8915f)"><rect x="0" width="810" y="0" height="809.999993" style="fill:#000000;fill-opacity:0.5;stroke:none;"/></g></mask></g></g></svg>