<svg xmlns="http://www.w3.org/2000/svg" xmlns:xlink="http://www.w3.org/1999/xlink" width="1080" zoomAndPan="magnify" viewBox="0 0 810 809.999993" height="1080" preserveAspectRatio="xMidYMid meet" version="1.2"><defs><clipPath id="e5a659fdab"><path d="M 30.566406 57.960938 L 779 57.960938 L 779 685.710938 L 30.566406 685.710938 Z M 30.566406 57.960938 "/></clipPath><clipPath id="54862c983c"><path d="M 30.566406 57.960938 L 779 57.960938 L 779 685.710938 L 30.566406 685.710938 Z M 30.566406 57.960938 "/></clipPath></defs><g id="2fdab67201"><g clip-rule="nonzero" clip-path="url(#e5a659fdab)"><path style=" stroke:none;fill-rule:nonzero;fill:#d2d2d1;fill-opacity:1;" d="M 778.839844 588.78125 L 778.839844 661.167969 L 416.917969 661.167969 L 416.917969 685.292969 L 272.144531 685.292969 L 272.144531 661.167969 L 30.859375 661.167969 L 30.859375 564.65625 L 54.996094 564.65625 L 54.996094 540.515625 L 79.121094 540.515625 L 79.121094 516.394531 L 103.246094 516.394531 L 103.246094 347.496094 L 127.367188 347.496094 L 127.367188 275.109375 L 103.246094 275.109375 L 103.246094 106.222656 L 127.367188 106.222656 L 127.367188 82.085938 L 489.289062 82.085938 L 489.289062 57.960938 L 561.675781 57.960938 L 561.675781 82.085938 L 682.3125 82.085938 L 682.3125 130.347656 L 706.449219 130.347656 L 706.449219 226.859375 L 682.3125 226.859375 L 682.3125 492.269531 L 706.449219 492.269531 L 706.449219 516.394531 L 730.574219 516.394531 L 730.574219 540.515625 L 754.699219 540.515625 L 754.699219 588.78125 Z M 778.839844 588.78125 "/></g><path style=" stroke:none;fill-rule:nonzero;fill:#d2d2d1;fill-opacity:1;" d="M 416.917969 637.027344 L 416.917969 661.167969 L 272.144531 661.167969 L 272.144531 612.90625 L 296.265625 612.90625 L 296.265625 588.78125 L 537.554688 588.78125 L 537.554688 637.027344 Z M 127.367188 371.617188 L 127.367188 347.496094 L 151.507812 347.496094 L 151.507812 275.109375 L 127.367188 275.109375 L 127.367188 106.222656 L 489.289062 106.222656 L 489.289062 82.085938 L 561.675781 82.085938 L 561.675781 106.222656 L 658.1875 106.222656 L 658.1875 130.347656 L 682.3125 130.347656 L 682.3125 226.859375 L 658.1875 226.859375 L 658.1875 444.007812 L 127.367188 444.007812 Z M 175.632812 347.496094 L 175.632812 395.757812 L 199.757812 395.757812 L 199.757812 419.882812 L 392.777344 419.882812 L 392.777344 395.757812 L 561.675781 395.757812 L 561.675781 419.882812 L 609.941406 419.882812 L 609.941406 395.757812 L 634.0625 395.757812 L 634.0625 154.472656 L 609.941406 154.472656 L 609.941406 130.347656 L 223.894531 130.347656 L 223.894531 154.472656 L 151.507812 154.472656 L 151.507812 250.984375 L 175.632812 250.984375 Z M 103.246094 540.515625 L 103.246094 516.394531 L 127.367188 516.394531 L 127.367188 492.269531 L 151.507812 492.269531 L 151.507812 468.128906 L 320.40625 468.128906 L 320.40625 492.269531 L 465.164062 492.269531 L 465.164062 468.128906 L 658.1875 468.128906 L 658.1875 492.269531 L 682.3125 492.269531 L 682.3125 516.394531 L 706.449219 516.394531 L 706.449219 564.65625 L 730.574219 564.65625 L 730.574219 588.78125 L 754.699219 588.78125 L 754.699219 637.027344 L 585.800781 637.027344 L 585.800781 612.902344 L 561.675781 612.902344 L 561.675781 588.78125 L 537.554688 588.78125 L 537.554688 564.65625 L 272.144531 564.65625 L 272.144531 612.902344 L 223.894531 612.902344 L 223.894531 637.027344 L 54.996094 637.027344 L 54.996094 588.78125 L 79.121094 588.78125 L 79.121094 564.65625 L 103.246094 564.65625 Z M 223.894531 588.78125 L 223.894531 564.65625 L 127.367188 564.65625 L 127.367188 588.78125 Z M 585.800781 588.78125 L 634.0625 588.78125 L 634.0625 564.65625 L 585.800781 564.65625 Z M 682.3125 564.65625 L 658.1875 564.65625 L 658.1875 588.78125 L 682.3125 588.78125 Z M 465.164062 516.394531 L 465.164062 540.515625 L 609.941406 540.515625 L 609.941406 516.394531 Z M 320.40625 516.394531 L 199.757812 516.394531 L 199.757812 540.515625 L 416.917969 540.515625 L 416.917969 516.394531 Z M 320.40625 516.394531 "/><g clip-rule="nonzero" clip-path="url(#54862c983c)"><path style=" stroke:none;fill-rule:nonzero;fill:#b24650;fill-opacity:1;" d="M 778.839844 588.78125 L 778.839844 661.167969 L 416.917969 661.167969 L 416.917969 637.027344 L 537.554688 637.027344 L 537.554688 588.78125 L 561.675781 588.78125 L 561.675781 612.902344 L 585.800781 612.902344 L 585.800781 637.027344 L 754.699219 637.027344 L 754.699219 588.78125 Z M 706.449219 564.65625 L 730.574219 564.65625 L 730.574219 588.78125 L 754.699219 588.78125 L 754.699219 540.515625 L 730.574219 540.515625 L 730.574219 516.394531 L 706.449219 516.394531 Z M 682.3125 178.597656 L 682.3125 226.859375 L 706.449219 226.859375 L 706.449219 130.347656 L 682.3125 130.347656 Z M 706.449219 516.394531 L 706.449219 492.269531 L 682.3125 492.269531 L 682.3125 516.394531 Z M 585.800781 106.222656 L 658.1875 106.222656 L 658.1875 130.347656 L 682.3125 130.347656 L 682.3125 82.085938 L 561.675781 82.085938 L 561.675781 106.222656 Z M 513.429688 564.65625 L 272.144531 564.65625 L 272.144531 612.902344 L 296.265625 612.902344 L 296.265625 588.78125 L 537.554688 588.78125 L 537.554688 564.65625 Z M 537.554688 82.085938 L 561.675781 82.085938 L 561.675781 57.960938 L 489.289062 57.960938 L 489.289062 82.085938 Z M 368.65625 661.167969 L 272.144531 661.167969 L 272.144531 685.292969 L 416.917969 685.292969 L 416.917969 661.167969 Z M 272.144531 612.902344 L 223.894531 612.902344 L 223.894531 637.027344 L 54.996094 637.027344 L 54.996094 588.78125 L 79.121094 588.78125 L 79.121094 564.65625 L 103.246094 564.65625 L 103.246094 516.394531 L 79.121094 516.394531 L 79.121094 540.515625 L 54.996094 540.515625 L 54.996094 564.65625 L 30.859375 564.65625 L 30.859375 661.167969 L 272.144531 661.167969 Z M 175.632812 395.757812 L 199.757812 395.757812 L 199.757812 419.882812 L 392.777344 419.882812 L 392.777344 395.757812 L 561.675781 395.757812 L 561.675781 419.882812 L 609.941406 419.882812 L 609.941406 395.757812 L 634.0625 395.757812 L 634.0625 154.472656 L 609.941406 154.472656 L 609.941406 130.347656 L 223.894531 130.347656 L 223.894531 154.472656 L 416.917969 154.472656 L 416.917969 178.597656 L 392.777344 178.597656 L 392.777344 202.734375 L 344.53125 202.734375 L 344.53125 226.859375 L 296.265625 226.859375 L 296.265625 250.984375 L 248.019531 250.984375 L 248.019531 275.109375 L 199.757812 275.109375 L 199.757812 250.984375 L 175.632812 250.984375 Z M 175.632812 202.734375 L 175.632812 178.597656 L 223.894531 178.597656 L 223.894531 154.472656 L 151.507812 154.472656 L 151.507812 250.984375 L 175.632812 250.984375 Z M 175.632812 106.222656 L 489.289062 106.222656 L 489.289062 82.085938 L 127.367188 82.085938 L 127.367188 106.222656 Z M 151.507812 323.371094 L 151.507812 275.109375 L 127.367188 275.109375 L 127.367188 347.496094 L 151.507812 347.496094 Z M 127.367188 492.269531 L 151.507812 492.269531 L 151.507812 468.128906 L 320.40625 468.128906 L 320.40625 492.269531 L 465.164062 492.269531 L 465.164062 468.128906 L 658.1875 468.128906 L 658.1875 492.269531 L 682.3125 492.269531 L 682.3125 226.859375 L 658.1875 226.859375 L 658.1875 444.007812 L 127.367188 444.007812 L 127.367188 347.496094 L 103.246094 347.496094 L 103.246094 516.394531 L 127.367188 516.394531 Z M 127.367188 226.859375 L 127.367188 106.222656 L 103.246094 106.222656 L 103.246094 275.109375 L 127.367188 275.109375 Z M 127.367188 226.859375 "/></g><path style=" stroke:none;fill-rule:nonzero;fill:#f7f7f0;fill-opacity:1;" d="M 658.1875 564.65625 L 682.3125 564.65625 L 682.3125 588.78125 L 658.1875 588.78125 Z M 634.0625 588.78125 L 634.0625 564.65625 L 585.800781 564.65625 L 585.800781 588.78125 Z M 489.289062 540.515625 L 609.941406 540.515625 L 609.941406 516.394531 L 465.164062 516.394531 L 465.164062 540.515625 Z M 272.144531 516.394531 L 199.757812 516.394531 L 199.757812 540.515625 L 416.917969 540.515625 L 416.917969 516.394531 Z M 199.757812 564.65625 L 127.367188 564.65625 L 127.367188 588.78125 L 223.894531 588.78125 L 223.894531 564.65625 Z M 199.757812 275.109375 L 248.019531 275.109375 L 248.019531 250.984375 L 296.265625 250.984375 L 296.265625 226.859375 L 344.53125 226.859375 L 344.53125 202.734375 L 392.777344 202.734375 L 392.777344 178.597656 L 416.917969 178.597656 L 416.917969 154.472656 L 223.894531 154.472656 L 223.894531 178.597656 L 175.632812 178.597656 L 175.632812 250.984375 L 199.757812 250.984375 Z M 199.757812 275.109375 "/></g></svg>