<svg xmlns="http://www.w3.org/2000/svg" xmlns:xlink="http://www.w3.org/1999/xlink" width="1080" zoomAndPan="magnify" viewBox="0 0 810 809.999993" height="1080" preserveAspectRatio="xMidYMid meet" version="1.2"><g id="db01161fd2"><path style=" stroke:none;fill-rule:nonzero;fill:#da4031;fill-opacity:1;" d="M 33.964844 0.914062 L 131.0625 0.914062 L 131.0625 33.199219 L 163.382812 33.199219 L 163.382812 65.523438 L 195.722656 65.523438 L 195.722656 97.824219 L 228.007812 97.824219 L 228.007812 130.109375 L 260.292969 130.109375 L 260.292969 162.429688 L 292.59375 162.429688 L 292.59375 194.734375 L 324.914062 194.734375 L 324.914062 227.054688 L 357.199219 227.054688 L 357.199219 259.339844 L 389.523438 259.339844 L 389.523438 291.660156 L 421.824219 291.660156 L 421.824219 323.960938 L 454.109375 323.960938 L 454.109375 356.304688 L 486.429688 356.304688 L 486.429688 388.625 L 518.734375 388.625 L 518.734375 420.925781 L 551.054688 420.925781 L 551.054688 453.25 L 615.265625 453.25 L 615.265625 420.871094 L 647.589844 420.871094 L 647.589844 388.566406 L 712.566406 388.566406 L 712.566406 420.871094 L 744.871094 420.871094 L 744.871094 453.511719 L 712.566406 453.511719 L 712.566406 485.851562 L 680.246094 485.851562 L 680.246094 518.152344 L 647.960938 518.152344 L 647.960938 582.386719 L 680.246094 582.386719 L 680.246094 614.707031 L 712.566406 614.707031 L 712.566406 647.007812 L 744.871094 647.007812 L 744.871094 679.292969 L 809.476562 679.292969 L 809.476562 808.898438 L 679.890625 808.898438 L 679.890625 744.292969 L 647.589844 744.292969 L 647.589844 711.988281 L 615.265625 711.988281 L 615.265625 679.703125 L 582.964844 679.703125 L 582.964844 647.382812 L 518.734375 647.382812 L 518.734375 679.703125 L 486.429688 679.703125 L 486.429688 712.027344 L 454.109375 712.027344 L 454.109375 744.328125 L 421.449219 744.328125 L 421.449219 711.988281 L 389.148438 711.988281 L 389.148438 647.007812 L 421.449219 647.007812 L 421.449219 614.707031 L 453.695312 614.707031 L 453.695312 550.476562 L 421.414062 550.476562 L 421.414062 518.152344 L 389.109375 518.152344 L 389.109375 485.851562 L 356.789062 485.851562 L 356.789062 453.511719 L 324.503906 453.511719 L 324.503906 421.246094 L 292.183594 421.246094 L 292.183594 388.941406 L 259.878906 388.941406 L 259.878906 356.621094 L 227.597656 356.621094 L 227.597656 324.335938 L 195.273438 324.335938 L 195.273438 292.035156 L 163.007812 292.035156 L 163.007812 259.710938 L 130.6875 259.710938 L 130.6875 227.429688 L 98.402344 227.429688 L 98.402344 195.105469 L 66.101562 195.105469 L 66.101562 162.804688 L 33.78125 162.804688 L 33.78125 130.519531 L 1.496094 130.519531 L 1.496094 0.914062 Z M 454.109375 517.964844 Z M 421.824219 485.664062 Z M 421.636719 356.675781 L 421.636719 388.8125 Z M 389.523438 453.433594 Z M 357.199219 421.113281 Z M 324.710938 291.847656 L 324.710938 259.710938 Z M 292.390625 259.523438 L 292.390625 227.429688 Z M 163.175781 98.199219 L 163.175781 130.332031 Z M 131.042969 194.917969 Z M 130.855469 65.933594 L 130.855469 98.011719 Z M 98.757812 162.65625 Z M 66.457031 130.371094 Z M 66.457031 130.371094 "/><path style=" stroke:none;fill-rule:nonzero;fill:#b24650;fill-opacity:1;" d="M 97.246094 97.09375 L 97.246094 64.792969 L 131.398438 64.792969 L 131.398438 97.09375 L 163.71875 97.09375 L 163.71875 129.417969 L 196.023438 129.417969 L 196.023438 161.699219 L 228.34375 161.699219 L 228.34375 194.003906 L 260.628906 194.003906 L 260.628906 226.324219 L 292.929688 226.324219 L 292.929688 258.609375 L 325.253906 258.609375 L 325.253906 290.875 L 357.535156 290.875 L 357.535156 323.175781 L 389.859375 323.175781 L 389.859375 355.460938 L 422.160156 355.460938 L 422.160156 387.78125 L 454.445312 387.78125 L 454.445312 420.085938 L 486.765625 420.085938 L 486.765625 452.40625 L 519.125 452.40625 L 519.125 484.691406 L 551.390625 484.691406 L 551.390625 518.9375 L 519.125 518.9375 L 519.125 551.261719 L 484.953125 551.261719 L 484.953125 518.9375 L 452.574219 518.9375 L 452.574219 486.617188 L 420.292969 486.617188 L 420.292969 454.332031 L 387.988281 454.332031 L 387.988281 422.011719 L 355.667969 422.011719 L 355.667969 389.707031 L 323.382812 389.707031 L 323.382812 357.386719 L 291.0625 357.386719 L 291.0625 325.101562 L 258.757812 325.101562 L 258.757812 292.742188 L 226.476562 292.742188 L 226.476562 260.480469 L 194.152344 260.480469 L 194.152344 228.195312 L 161.851562 228.195312 L 161.851562 195.875 L 129.527344 195.875 L 129.527344 163.570312 L 97.246094 163.570312 L 97.246094 131.285156 L 64.867188 131.285156 L 64.867188 97.09375 Z M 486.765625 517.070312 L 517.257812 517.070312 L 517.257812 486.617188 L 486.824219 486.617188 Z M 454.445312 484.765625 L 484.898438 484.765625 L 484.898438 454.332031 L 454.445312 454.332031 Z M 422.160156 452.480469 L 452.574219 452.480469 L 452.574219 422.011719 L 422.160156 422.011719 Z M 389.859375 420.160156 L 420.292969 420.160156 L 420.292969 389.707031 L 389.859375 389.707031 Z M 357.535156 387.859375 L 387.988281 387.859375 L 387.988281 357.386719 L 357.535156 357.386719 Z M 325.253906 355.535156 L 355.667969 355.535156 L 355.667969 325.101562 L 325.253906 325.101562 Z M 292.929688 323.234375 L 323.382812 323.234375 L 323.382812 292.742188 L 292.929688 292.742188 Z M 260.628906 290.875 L 291.0625 290.875 L 291.0625 260.480469 L 260.628906 260.480469 Z M 228.34375 258.554688 L 258.757812 258.554688 L 258.757812 228.195312 L 228.34375 228.195312 Z M 196.023438 226.269531 L 226.476562 226.269531 L 226.476562 195.875 L 196.023438 195.875 Z M 163.71875 193.949219 L 194.152344 193.949219 L 194.152344 163.570312 L 163.71875 163.570312 Z M 131.398438 161.699219 L 161.851562 161.699219 L 161.851562 131.285156 L 131.398438 131.285156 Z M 99.113281 129.417969 L 129.527344 129.417969 L 129.527344 98.964844 L 99.113281 98.964844 Z M 99.113281 129.417969 "/><path style=" stroke:none;fill-rule:nonzero;fill:#ffffff;fill-opacity:1;" d="M 33.554688 98.03125 L 33.554688 130.351562 L 65.875 130.351562 L 65.875 98.03125 Z M 65.875 65.726562 L 65.875 98.03125 L 33.554688 98.03125 L 33.554688 65.726562 Z M 65.875 33.40625 L 65.875 65.726562 L 33.554688 65.726562 L 33.554688 33.40625 Z M 98.179688 130.351562 L 98.179688 162.636719 L 65.875 162.636719 L 65.875 130.351562 Z M 98.179688 33.40625 L 98.179688 65.726562 L 65.875 65.726562 L 65.875 33.40625 Z M 130.464844 162.636719 L 130.464844 194.9375 L 98.179688 194.9375 L 98.179688 162.636719 Z M 130.464844 33.40625 L 130.464844 65.726562 L 98.179688 65.726562 L 98.179688 33.40625 Z M 162.785156 194.9375 L 162.785156 227.316406 L 130.464844 227.316406 L 130.464844 194.9375 Z M 162.785156 65.726562 L 162.785156 98.03125 L 130.464844 98.03125 L 130.464844 65.726562 Z M 195.089844 227.316406 L 195.089844 259.601562 L 162.785156 259.601562 L 162.785156 227.316406 Z M 195.089844 98.085938 L 195.089844 130.351562 L 162.785156 130.351562 L 162.785156 98.03125 Z M 227.410156 259.601562 L 227.410156 291.921875 L 195.089844 291.921875 L 195.089844 259.542969 Z M 227.410156 130.40625 L 227.410156 162.636719 L 195.089844 162.636719 L 195.089844 130.351562 Z M 259.695312 291.921875 L 259.695312 324.222656 L 227.410156 324.222656 L 227.410156 291.867188 Z M 259.695312 162.691406 L 259.695312 194.996094 L 227.410156 194.996094 L 227.410156 162.636719 Z M 291.996094 324.167969 L 291.996094 356.453125 L 259.695312 356.453125 L 259.695312 324.167969 Z M 291.996094 194.9375 L 291.996094 227.316406 L 259.695312 227.316406 L 259.695312 194.9375 Z M 324.316406 356.453125 L 324.316406 388.773438 L 291.996094 388.773438 L 291.996094 356.453125 Z M 324.316406 227.261719 L 324.316406 259.542969 L 291.996094 259.542969 L 291.996094 227.316406 Z M 356.601562 388.773438 L 356.601562 421.078125 L 324.316406 421.078125 L 324.316406 388.773438 Z M 356.601562 259.542969 L 356.601562 291.867188 L 324.316406 291.867188 L 324.316406 259.542969 Z M 388.921875 421.078125 L 388.921875 453.398438 L 356.601562 453.398438 L 356.601562 421.078125 Z M 388.921875 291.867188 L 388.921875 324.167969 L 356.601562 324.167969 L 356.601562 291.867188 Z M 421.226562 453.398438 L 421.226562 485.683594 L 388.921875 485.683594 L 388.921875 453.398438 Z M 421.226562 324.167969 L 421.226562 356.453125 L 388.921875 356.453125 L 388.921875 324.167969 Z M 453.511719 485.683594 L 453.511719 517.984375 L 421.226562 517.984375 L 421.226562 485.683594 Z M 453.511719 356.453125 L 453.511719 388.773438 L 421.226562 388.773438 L 421.226562 356.453125 Z M 485.832031 517.984375 L 485.832031 550.304688 L 453.511719 550.304688 L 453.511719 517.984375 Z M 485.832031 388.773438 L 485.832031 421.078125 L 453.511719 421.078125 L 453.511719 388.773438 Z M 518.132812 421.078125 L 518.132812 453.398438 L 485.832031 453.398438 L 485.832031 421.078125 Z M 550.457031 453.398438 L 550.457031 485.683594 L 518.132812 485.683594 L 518.132812 453.398438 Z M 550.457031 453.398438 "/><path style=" stroke:none;fill-rule:nonzero;fill:#ee3e24;fill-opacity:1;" d="M 581.804688 581.65625 L 581.804688 648.148438 L 614.109375 648.148438 L 614.109375 680.433594 L 646.429688 680.433594 L 646.429688 712.753906 L 712.90625 712.753906 L 712.90625 646.28125 L 680.582031 646.28125 L 680.582031 613.976562 L 648.300781 613.976562 L 648.300781 581.65625 Z M 581.804688 581.65625 "/><path style=" stroke:none;fill-rule:nonzero;fill:#3d3b52;fill-opacity:1;" d="M 33.554688 -0.09375 L 131.679688 -0.09375 L 131.679688 32.191406 L 163.945312 32.191406 L 163.945312 64.511719 L 196.304688 64.511719 L 196.304688 96.816406 L 228.625 96.816406 L 228.625 129.136719 L 260.910156 129.136719 L 260.910156 161.421875 L 293.210938 161.421875 L 293.210938 193.667969 L 325.53125 193.667969 L 325.53125 225.988281 L 357.816406 225.988281 L 357.816406 258.273438 L 390.136719 258.273438 L 390.136719 290.59375 L 422.441406 290.59375 L 422.441406 322.898438 L 454.726562 322.898438 L 454.726562 355.179688 L 487.046875 355.179688 L 487.046875 387.503906 L 519.351562 387.503906 L 519.351562 419.863281 L 551.671875 419.863281 L 551.671875 452.183594 L 613.828125 452.183594 L 613.828125 419.863281 L 646.148438 419.863281 L 646.148438 387.558594 L 713.183594 387.558594 L 713.183594 419.863281 L 745.488281 419.863281 L 745.488281 454.613281 L 713.183594 454.613281 L 713.183594 486.898438 L 680.863281 486.898438 L 680.863281 519.199219 L 648.578125 519.199219 L 648.578125 581.375 L 680.863281 581.375 L 680.863281 613.695312 L 713.183594 613.695312 L 713.183594 646.054688 L 745.488281 646.054688 L 745.488281 678.339844 L 810.09375 678.339844 L 810.09375 810 L 678.433594 810 L 678.433594 745.339844 L 646.148438 745.339844 L 646.148438 713.035156 L 613.828125 713.035156 L 613.828125 680.714844 L 581.523438 680.714844 L 581.523438 648.429688 L 519.351562 648.429688 L 519.351562 680.714844 L 487.046875 680.714844 L 487.046875 713.035156 L 454.726562 713.035156 L 454.726562 745.339844 L 420.046875 745.339844 L 420.046875 713.035156 L 387.707031 713.035156 L 387.707031 646.054688 L 420.046875 646.054688 L 420.046875 613.695312 L 452.296875 613.695312 L 452.296875 551.523438 L 420.046875 551.523438 L 420.046875 519.199219 L 387.707031 519.199219 L 387.707031 486.898438 L 355.386719 486.898438 L 355.386719 454.613281 L 323.101562 454.613281 L 323.101562 422.292969 L 290.78125 422.292969 L 290.78125 389.953125 L 258.476562 389.953125 L 258.476562 357.667969 L 226.195312 357.667969 L 226.195312 325.382812 L 193.855469 325.382812 L 193.855469 293.082031 L 161.550781 293.082031 L 161.550781 260.757812 L 129.230469 260.757812 L 129.230469 228.476562 L 96.945312 228.476562 L 96.945312 196.152344 L 64.644531 196.152344 L 64.644531 163.851562 L 32.339844 163.851562 L 32.339844 131.566406 L 0.0546875 131.566406 L 0.0546875 -0.09375 Z M 713.183594 775.191406 L 775.339844 775.191406 L 775.339844 713.035156 L 745.433594 713.035156 L 745.433594 745.339844 L 713.183594 745.339844 Z M 583.957031 614.910156 L 583.957031 646.054688 L 616.332031 646.054688 L 616.332031 678.339844 L 648.578125 678.339844 L 648.578125 710.660156 L 710.753906 710.660156 L 710.753906 648.429688 L 678.433594 648.429688 L 678.433594 616.144531 L 646.148438 616.144531 L 646.148438 583.804688 L 583.957031 583.804688 Z M 422.441406 648.429688 L 422.441406 710.605469 L 452.351562 710.605469 L 452.351562 678.285156 L 484.617188 678.285156 L 484.617188 646.054688 L 516.917969 646.054688 L 516.917969 613.695312 L 549.242188 613.695312 L 549.242188 581.375 L 581.523438 581.375 L 581.523438 549.089844 L 613.828125 549.089844 L 613.828125 516.769531 L 646.148438 516.769531 L 646.148438 484.46875 L 678.433594 484.46875 L 678.433594 452.183594 L 710.753906 452.183594 L 710.753906 422.273438 L 648.578125 422.273438 L 648.578125 454.59375 L 616.332031 454.59375 L 616.332031 486.878906 L 584.03125 486.878906 L 584.03125 519.179688 L 551.746094 519.179688 L 551.746094 551.503906 L 519.425781 551.503906 L 519.425781 583.804688 L 487.121094 583.804688 L 487.121094 616.144531 L 454.800781 616.144531 L 454.800781 648.449219 Z M 34.769531 98.03125 L 34.769531 129.136719 L 67.09375 129.136719 L 67.09375 161.421875 L 99.394531 161.421875 L 99.394531 193.667969 L 131.679688 193.667969 L 131.679688 225.988281 L 163.945312 225.988281 L 163.945312 258.273438 L 196.304688 258.273438 L 196.304688 290.59375 L 228.625 290.59375 L 228.625 322.898438 L 260.910156 322.898438 L 260.910156 355.179688 L 293.210938 355.179688 L 293.210938 387.503906 L 325.53125 387.503906 L 325.53125 419.863281 L 357.816406 419.863281 L 357.816406 452.183594 L 390.136719 452.183594 L 390.136719 484.46875 L 422.441406 484.46875 L 422.441406 516.769531 L 454.726562 516.769531 L 454.726562 549.089844 L 516.917969 549.089844 L 516.917969 516.769531 L 549.242188 516.769531 L 549.242188 454.613281 L 516.917969 454.613281 L 516.917969 422.292969 L 484.617188 422.292969 L 484.617188 389.953125 L 452.296875 389.953125 L 452.296875 357.667969 L 420.046875 357.667969 L 420.046875 325.382812 L 387.707031 325.382812 L 387.707031 293.082031 L 355.386719 293.082031 L 355.386719 260.757812 L 323.101562 260.757812 L 323.101562 228.476562 L 290.78125 228.476562 L 290.78125 196.152344 L 258.476562 196.152344 L 258.476562 163.851562 L 226.195312 163.851562 L 226.195312 131.566406 L 193.855469 131.566406 L 193.855469 99.246094 L 161.550781 99.246094 L 161.550781 66.941406 L 129.230469 66.941406 L 129.230469 34.621094 L 34.769531 34.621094 Z M 34.769531 98.03125 "/></g></svg>